/* XPM */
static char *background1674633000[] = {
/* columns rows colors chars-per-pixel */
"128 128 13 1 ",
"  c #ABE3F5",
". c #ABE4F6",
"X c #ACE4F6",
"o c #ACE4F7",
"O c #ACE5F7",
"+ c #ADE5F8",
"@ c #ADE6F8",
"# c #AEE6F9",
"$ c #AEE7F9",
"% c #AEE7FA",
"& c #AFE7FA",
"* c #AFE8FB",
"= c #B0E9FC",
/* pixels */
"                    @=======================================================================================@                   ",
"                    =======================================================================================*                    ",
"                   @======================================================================================*@                    ",
"                   =======================================================================================*                     ",
"                  @=======================================================================================@                     ",
"                  =======================================================================================&                      ",
"                 X======================================================================================*                       ",
"                 @======================================================================================&                       ",
"                 ======================================================================================*                        ",
"                @======================================================================================&                        ",
"                &=====================================================================================*                         ",
"               .======================================================================================                          ",
"               @=====================================================================================&                          ",
"               *===================================================================================**                           ",
"              X====================================================================================*                            ",
"              @====================================================================================&                            ",
"              &===================================================================================&                             ",
"              ===================================================================================&                              ",
"             o===================================================================================o                              ",
"             @==================================================================================@                               ",
"             *===============================================================================**@                                ",
"            o================================================================================**                                 ",
"            @================================================================================*                                  ",
"            *==============================================================================**                                   ",
"           o*==============================================================================*                                    ",
"           @==============================================================================*                                     ",
"           *============================================================================*&                                      ",
"          @=============================================================================*                                       ",
"          *===========================================================================*@                                        ",
"         o============================================================================@                                         ",
"         @==========================================================================*@                                          ",
"         ==========================================================================*o                                           ",
"        &*========================================================================@                                             ",
"        =========================================================================@                                              ",
"       @========================================================================o                                               ",
"       =======================================================================@                                                 ",
"      &*====================================================================*                                                   ",
"      =====================================================================@                                                    ",
"     **==================================================================@                                                      ",
"    o==================================================================@@                                                       ",
"    *================================================================*o                                                         ",
"   &===============================================================*@                                                           ",
"  o==============================================================*@                                                             ",
"  *============================================================*o                                                               ",
" @==========================================================&@                                                                  ",
"o=========================================================*@                                                                    ",
"*=====================================================**@                                                                       ",
"=====================================================&@                                                                        *",
"==================================================&@                                                                          @=",
"==============================================*&@                                                                            @==",
"==========================================**&o                                                                              @===",
"========================================*&                                                                                 o====",
"=====================================*@o                                                                                  o*====",
"===================================*@                                                                                     *=====",
"=================================&                                                                                      @*======",
"===============================@                                                                                        **======",
"=============================&                                                                                         *========",
"===========================&                                                                                         @==========",
"=========================@                                                                                          o*==========",
"=======================*o                                                                                          @=*==========",
"======================@                                                                                           @=============",
"====================*                                                                                            *==============",
"===================&                                                                                           @================",
"=================*o                                                                                           @=================",
"================&                                                                                           o*==================",
"===============&                                                                                           @====================",
"==============@                                                                                           *=====================",
"============*@                                                                                          &=======================",
"===========*o                                                                                         @*========================",
"==========*                                                                                         o*=*========================",
"=========*                                                                                        o&============================",
"========*@                                                                                       &==============================",
"=======*                                                                                      o*================================",
"======*                                                                                     o**=================================",
"=====*                                                                                    @*====================================",
"=====@                                                                                 o&=======================================",
"====@                                                                                @*=========================================",
"===@                                                                              @*============================================",
"==@X                                                                           @*===============================================",
"==o                                                                        @*===================================================",
"=@                                                                     o@*======================================================",
"@                                                                  oo@**========================================================",
"                                                                  @*===========================================================*",
"                                                                @=*============================================================@",
"                                                             o&===============================================================@ ",
"                                                            *================================================================*  ",
"                                                         o&==================================================================@  ",
"                                                        &===================================================================&   ",
"                                                      @=====================================================================o   ",
"                                                    o*=====================================================================@    ",
"                                                   &======================================================================*     ",
"                                                 o*=======================================================================@     ",
"                                                &========================================================================*      ",
"                                               *=========================================================================@      ",
"                                             @==========================================================================*       ",
"                                            @==========================================================================*@       ",
"                                           &===========================================================================*        ",
"                                          **===========================================================================@        ",
"                                         **===========================================================================*         ",
"                                        *=============================================================================@         ",
"                                      o**=============================================================================          ",
"                                      *==============================================================================&          ",
"                                     *===============================================================================o          ",
"                                    *===============================================================================*           ",
"                                   ***==============================================================================@           ",
"                                  &*===============================================================================*            ",
"                                 @=================================================================================*            ",
"                                o==================================================================================o            ",
"                                *=================================================================================*             ",
"                               *==================================================================================&             ",
"                              @*=================================================================================*o             ",
"                             o===================================================================================*              ",
"                             *===================================================================================@              ",
"                            @====================================================================================@              ",
"                            ====================================================================================*               ",
"                           *====================================================================================*               ",
"                          @=====================================================================================&               ",
"                         o======================================================================================o               ",
"                         @====================================================================================**                ",
"                        @=====================================================================================*&                ",
"                        *======================================================================================@                ",
"                       @======================================================================================*                 ",
"                       @======================================================================================&                 ",
"                      @=======================================================================================o                 ",
"                      *=====================================================================================**                  ",
"                     o=======================================================================================@                  ",
"                     *=======================================================================================                   ",
"                    @======================================================================================**                   "
};
