/* XPM */
static char *_5e333db221e43479d9888758668577flLzRJRbYLgTlinUc[] = {
/* columns rows colors chars-per-pixel */
"64 64 135 2 ",
"   c None",
".  c #0E0C17",
"X  c #100D17",
"o  c #120F19",
"O  c #16111A",
"+  c #1B131C",
"@  c #24171F",
"#  c #2B191E",
"$  c #301B1F",
"%  c #1F1620",
"&  c #221620",
"*  c #251821",
"=  c #2A1920",
"-  c #331E22",
";  c #3A1F25",
":  c #311F2B",
">  c #362125",
",  c #3A2124",
"<  c #34212B",
"1  c #3B2529",
"2  c #3D2531",
"3  c #372538",
"4  c #3F2838",
"5  c #432325",
"6  c #4A2525",
"7  c #44252A",
"8  c #482728",
"9  c #4D292E",
"0  c #542D2C",
"q  c #5B2C29",
"w  c #422631",
"e  c #462933",
"r  c #4C2A34",
"t  c #412838",
"y  c #4A2B38",
"u  c #542E36",
"i  c #592F35",
"p  c #552F38",
"a  c #563230",
"s  c #5D3133",
"d  c #573038",
"f  c #5A3138",
"g  c #602F2F",
"h  c #6D332D",
"j  c #72352E",
"k  c #78372F",
"l  c #79382F",
"z  c #653335",
"x  c #6D3535",
"c  c #6E3B33",
"v  c #633439",
"b  c #6A3639",
"n  c #6B3939",
"m  c #713734",
"M  c #783730",
"N  c #753934",
"B  c #7B3A34",
"V  c #7E3E38",
"C  c #7D433A",
"Z  c #744741",
"A  c #764942",
"S  c #843D34",
"D  c #8C3F34",
"F  c #834137",
"G  c #8E4035",
"H  c #85453A",
"J  c #8F4338",
"K  c #884539",
"L  c #8A4739",
"P  c #8B473A",
"I  c #894138",
"U  c #87483A",
"Y  c #89483B",
"T  c #8B483B",
"R  c #8C483A",
"E  c #8D483A",
"W  c #884B3E",
"Q  c #884B3F",
"!  c #8C493E",
"~  c #8B4C3F",
"^  c #884B3E",
"/  c #904035",
"(  c #924236",
")  c #914437",
"_  c #944537",
"`  c #924236",
"'  c #954538",
"]  c #944738",
"[  c #944739",
"{  c #974739",
"}  c #954538",
"|  c #954839",
" . c #944B3F",
".. c #964B3E",
"X. c #934A3E",
"o. c #9A4839",
"O. c #98493B",
"+. c #9A493A",
"@. c #9B4B3E",
"#. c #994C3C",
"$. c #9A4C3D",
"%. c #994D3E",
"&. c #9B4E3F",
"*. c #9D4D3E",
"=. c #9C4E3F",
"-. c #9B4C3C",
";. c #A04F3E",
":. c #A04F3F",
">. c #A34F3F",
",. c #A14F3E",
"<. c #A2503F",
"1. c #8B5247",
"2. c #8D5348",
"3. c #8D5448",
"4. c #8E5448",
"5. c #8E564B",
"6. c #935448",
"7. c #97594C",
"8. c #A55341",
"9. c #A95542",
"0. c #AA5542",
"q. c #AC5643",
"w. c #AD5643",
"e. c #A85642",
"r. c #AC5947",
"t. c #AC5A46",
"y. c #AF5C48",
"u. c #AC5D4A",
"i. c #B15C49",
"p. c #B05F4B",
"a. c #B16250",
"s. c #B56653",
"d. c #B86854",
"f. c #B66A58",
"g. c #B86B58",
/* pixels */
"                                                                                                                                ",
"                                                                                                                                ",
"                                                                                                                                ",
"                                                                                                                                ",
"                                                                                                                                ",
"                                                                                                                                ",
"                                                                                    o O o o                                     ",
"                                                                                    1 1 , >                                     ",
"                                                                                O 1 Z 3.~ c > o                                 ",
"                                                                                . 1 1.d.i.F , o                                 ",
"                                                                                . 1 ^ y.<.l - X                                 ",
"                                                                                1 a R #.B q = O                                 ",
"                                                                            o 1 C 3. .B 6 # + O O O O o o O                     ",
"                                                                            . 1 1.a.@.j ; + O O o + - , , >                     ",
"                                                                            . , 1.t.+.M r : + X . - c R L c > o                 ",
"                                                                            > 0 H #.I c i r 7 , , 0 R 0.q.K 8 @                 ",
"                                                                        . > c R | S z d f b C K U R ] +.o.I g 7 = o             ",
"                                                                        $ 0 R <.I m d i n H #.9.0.#.B h h x z 0 = o             ",
"                                                                    . - N R _ I b p f n ! =.+.o.o.B 6 $ - ; r w * +             ",
"                                                                    > 0 R ;.I m i p z V #.;._ S k q # O o & : < & o             ",
"                                                                . > c L | I z f i z B D ( ' ( l 6 # + o O + % & + + O           ",
"                                                                > 0 L <.( m r e z B S J D D M q - @ + O O O O O O O O O         ",
"                                                            . - c R | J B i : - h D D D D l 6 ; 8 8 = o O O O O O O O +         ",
"                                                            > 0 R <.J M s 5 @ # q l D S j q # & 8 8 - * + O O O O O O           ",
"                                                        . $ c R ] J B s , @ O + # 6 l M 6 # + + = : w 7 * O     + O             ",
"                                                        > 0 R <.J M g 7 @ o O O o $ j l 5 @ + o o * ; 1 & O                     ",
"                                                    . - c R [ J V g , @ O O O O o - j S g 5 * o o + * & + O                     ",
"                                                    > 0 R <.J M s 7 @ O O O O O o $ q m m i - & + O O o + O                     ",
"                                                . - c R [ J B z , @ + O O O O O     - 5 q z r : @ O o O O O O                   ",
"                                                > 0 R 8.J M g 7 @ O O O O O +       o @ 7 u e : % o o + O + O                   ",
"                                            . > c R _ J B s , @ + o O O O O         o + * = = & + O     O O                     ",
"                                            - 0 R <.J M s 7 @ o O O O O +             + o o o O O +                             ",
"                                        X - c P [ J V q , * + O O O O +                 O O O O O + O                           ",
"                                        - 0 P 8.J B g 7 * o o O O O O                     O O O O O O                           ",
"                        O o O O O . . > c R [ J B s ; * + o O O O +                         O O + O                             ",
"                        1 1 1 1 1 1 , 9 S 6.D M g 7 * o o + O + O                             + O                               ",
"                    . > Z 5.5.5.5.1.^ C n v n g , * + o o + O O                                                                 ",
"                    1 f 7.f.f.f.f.s.t.! b p v r * o o + + o O                                                                   ",
"                . < C 5.u.p.p.i.p.t.=.J S m d w & o o + O +                                                                     ",
"                > a 7.f.p.8.8.8.<.#.( D D B z r - * + O +                                                                       ",
"            O 1 Z 7.u.u.t.8.| ( _ _ G S B B B N g 7 * o                                                                         ",
"            o 1 2.d.u.e.8.=.( D D G G S B B S S m 0 = o                                                                         ",
"            o 1 ^ p.t.8.+.( J D D D D D S S B m x u = O                                                                         ",
"            X 1 K q.0.=._ D D D D D D D D S B m x 0 = O                                                                         ",
"            O > H e.@.) D D D D D D D D D S B x z 0 = o O                                                                       ",
"            O > S 8.) S S B m B B S D D D D B x z r = O o +                                                                     ",
"            o - M } D B d y y u d x V D D S N b f 7 * O O O                                                                     ",
"            o - M D D B r 3 3 t y v S D D S B x p 2 & O O O                                                                     ",
"            O - j ` / M d 4 t y f x S S B B S B f 2 * o O O                                                                     ",
"            O # q l D B f e y u s x S S B B B x r : & O O O                                                                     ",
"                # 6 l C f y u f f b m B S B b r : & + O O O                                                                     ",
"                o # q h s v z x x x m m B x r : + o o + + O                                                                     ",
"                O + # 8 x S S S S B m x s u : % + o O + o +                                                                     ",
"                  o o # q j j j j h i 9 w : + o O O O O O                                                                       ",
"                    O + $ $ - $ - - = = * % O O O O O +                                                                         ",
"                      O O O O o o O o o + o + O O + O                                                                           ",
"                        O O O o o O O O O O O O O O                                                                             ",
"                          O + O O + O O O O O O +                                                                               ",
"                            O O O O + O + O O +                                                                                 ",
"                              O O O O O O O O                                                                                   ",
"                                                                                                                                ",
"                                                                                                                                ",
"                                                                                                                                ",
"                                                                                                                                "
};
