/* XPM */
static char *_ea3d96c243741a7de9ebd8034531655OwulT9LnwtctiVBA[] = {
/* columns rows colors chars-per-pixel */
"64 64 212 2 ",
"   c None",
".  c #3E3E3E",
"X  c #403D3D",
"o  c #46433A",
"O  c #544F3C",
"+  c #735E28",
"@  c #6A5D37",
"#  c #665325",
"$  c #73643D",
"%  c #7B6D38",
"&  c #6F633D",
"*  c #3D3F42",
"=  c #434444",
"-  c #494745",
";  c #4A4946",
":  c #464748",
">  c #47494A",
",  c #4B4B4B",
"<  c #514D44",
"1  c #504F4F",
"2  c #52514E",
"3  c #59534F",
"4  c #5B5343",
"5  c #4B4E50",
"6  c #474F51",
"7  c #4D5253",
"8  c #535454",
"9  c #5B5955",
"0  c #545A5D",
"q  c #5C5C5A",
"w  c #565757",
"e  c #655B48",
"r  c #645C56",
"t  c #615F5D",
"y  c #6E5F52",
"u  c #766641",
"i  c #7A6A45",
"p  c #65625D",
"a  c #6B645D",
"s  c #6B6458",
"d  c #796655",
"f  c #7B695B",
"g  c #786758",
"h  c #726B52",
"j  c #545D60",
"k  c #585A65",
"l  c #585C71",
"z  c #4C6262",
"x  c #566265",
"c  c #5A6365",
"v  c #59686B",
"b  c #5B6A73",
"n  c #5C7579",
"m  c #5A7276",
"M  c #626364",
"N  c #6D6C64",
"B  c #646C6D",
"V  c #6B6A6A",
"C  c #646768",
"Z  c #706E66",
"A  c #747165",
"S  c #747169",
"D  c #7A7969",
"F  c #656876",
"G  c #677879",
"H  c #797677",
"J  c #61716F",
"K  c #49605F",
"L  c #876F37",
"P  c #887137",
"I  c #967C3E",
"U  c #8E764D",
"Y  c #826C57",
"T  c #896E56",
"R  c #826C5A",
"E  c #896F59",
"W  c #8B7255",
"Q  c #8B7059",
"!  c #8B7C56",
"~  c #927D59",
"^  c #987D40",
"/  c #837863",
"(  c #8C7E75",
")  c #68827E",
"_  c #778676",
"`  c #A58C36",
"'  c #AD953B",
"]  c #AF983B",
"[  c #B0993F",
"{  c #998849",
"}  c #8F865C",
"|  c #91845B",
" . c #998D58",
".. c #9B9352",
"X. c #A48B48",
"o. c #AC934D",
"O. c #AB9546",
"+. c #B29B4A",
"@. c #B39E43",
"#. c #A99758",
"$. c #AD9057",
"%. c #B7A54A",
"&. c #BDAD51",
"*. c #BAA655",
"=. c #BEB053",
"-. c #878669",
";. c #968C64",
":. c #8D8D78",
">. c #899279",
",. c #989578",
"<. c #999067",
"1. c #A89B6B",
"2. c #B6936A",
"3. c #A89B76",
"4. c #BB9E78",
"5. c #A38863",
"6. c #B0A26A",
"7. c #B9A276",
"8. c #ADA37B",
"9. c #C1B45C",
"0. c #C2B457",
"q. c #C5B867",
"w. c #C5A676",
"e. c #CABD74",
"r. c #C9A770",
"t. c #CBC376",
"y. c #5E7F84",
"u. c #737484",
"i. c #607F84",
"p. c #807A81",
"a. c #5D8689",
"s. c #5F8E91",
"d. c #668789",
"f. c #778B85",
"g. c #799288",
"h. c #648D91",
"j. c #639799",
"k. c #749391",
"l. c #7B84B6",
"z. c #5FA6A2",
"x. c #66AAA8",
"c. c #66BAB7",
"v. c #70B8B4",
"b. c #72B2AC",
"n. c #77AD9C",
"m. c #68C9C4",
"M. c #848383",
"N. c #898889",
"B. c #988681",
"V. c #9F8B81",
"C. c #948A88",
"Z. c #9E9A83",
"A. c #989484",
"S. c #879696",
"D. c #919191",
"F. c #8D9788",
"G. c #B79F86",
"H. c #A19C84",
"J. c #9EA691",
"K. c #8FA291",
"L. c #A9A589",
"P. c #B6A987",
"I. c #B4AE91",
"U. c #B6AF8E",
"Y. c #888AA4",
"T. c #A39FB8",
"R. c #C6AC88",
"E. c #D4AE85",
"W. c #C8B38D",
"Q. c #D5B889",
"!. c #CCBB94",
"~. c #C6B79A",
"^. c #DABE98",
"/. c #C0AF92",
"(. c #CEC782",
"). c #D2CA84",
"_. c #D4C984",
"`. c #CEC197",
"'. c #D7C597",
"]. c #D7D295",
"[. c #E0C699",
"{. c #DCCCA3",
"}. c #D2C8A8",
"|. c #DFD5A6",
" X c #E9CDAB",
".X c #E4C8A4",
"XX c #E8D3AC",
"oX c #EEDBB3",
"OX c #F2DDB6",
"+X c #F4DFB8",
"@X c #F4E2B9",
"#X c #F5E8BA",
"$X c #F1E2B4",
"%X c #8893D7",
"&X c #949EDB",
"*X c #A8ACD8",
"=X c #B5B3D8",
"-X c #9CA6E7",
";X c #B2B7E5",
":X c #A5B4FF",
">X c #B3BAEF",
",X c #C5BFD7",
"<X c #BAC2FD",
"1X c #CBC3D7",
"2X c #C6C0D7",
"3X c #FAEBC1",
"4X c #FFF2C7",
"5X c #FFF3C8",
"6X c #C4CBFF",
"7X c #C9CFFF",
"8X c #D8DAFF",
"9X c #E2E2FF",
/* pixels */
"                                                                                                                                ",
"                                                                                                                                ",
"                                                                                                                                ",
"                                                                                                                                ",
"                                                    * . . . . . . . . . . . . X                                                 ",
"                                                    = = = = - - - - ; ; = = = =                                                 ",
"                                            . . . = - , : 1 3 9 w 9 3 8 1 : : : = . . =                                         ",
"                                            = - = - , 8 8 w q M p M p t w 8 8 8 = = = =                                         ",
"                                        . = : , , 1 w t r t t t t M t t t q t 3 1 > , - * X                                     ",
"                                        = - , 1 1 w t p a a a a a a a a N y t t w 8 1 1 : =                                     ",
"                                    . X - , , 8 9 t t a R R T E R R R R R A a t t w 8 1 , - = *                                 ",
"                                    . = , 5 8 w t p M g R E Q Q Q Q Q Q Q R g a t t 8 8 1 , = X                                 ",
"                                    = = , 8 9 t t p f R Q Q Q Q Q Q Q Q Q E R f a t t 9 8 > X X                                 ",
"                                    . = , 1 q a a g R E Q Q Q Q Q Q Q Q Q Q Q R g a p t 3 > X .                                 ",
"                                    X X - 1 t a R E E E Q Q Q Q Q Q Q Q Q E Q E R f a t 8 - X .                                 ",
"                                    l l l F k r R Q Q E T T T Q Q T Q T T E T T E R y k l F l l                                 ",
"                        . * * . . k l.%X%Xl.F s T Q Q W Q T Q T T T T T T Q T E T R s F u.%X-Xu.k . . . X X                     ",
"                        = = = o . l %X:X:X-XY.p.( p.p.V.p.2.V.V.2.V.V.V.3.V.p.:.B.( p.Y.:X:X:X%Xl * . = = =                     ",
"                    . = - : , ; = l %X:X<X>X;X*X=X=X=X=X1X,X1X1X,X1X,X,X,X,X=X=X=X=X*X;X:X>X:X%Xb ; - : > - = X                 ",
"                    * - 2 8 w 8 1 F l.&X*X;X<X6X6X6X6X8X9X9X9X9X9X9X9X9X9X9X8X6X6X6X6X6X;X-X&XY.F 8 8 8 8 1 : =                 ",
"                . = : 8 9 t q t k M F u.u.Y.>X6X6X7X8X9X9X9X9X9X9X9X9X9X9X9X8X8X6X6X6X;XY.u.u.F t q t t t 3 1 : = =             ",
"                . = : 2 9 t t M a y N y y H T.=X=X=X,X,X1X1X1X1X,X,X,X,X,X1X1X1X=X=X=XT.H r a g a a M t q 9 1 : = *             ",
"                    = - 1 w q a f R R Y R E ( V.B.:.V.V.V.V.V.V.V.2.V.V.V.V.V.V.V.B.B.( R R Y R R f a q q 1 : =                 ",
"                    . = - , 8 r g R f R f R R R T T T T T T T T E T T Q T T T T T T R R R R Y f Y g r 8 , : = X                 ",
"                        o o = - 3 r 3 r s a a g Y T T Q Q Q T T E E E E E E T E T T g a a s r 9 r 3 ; = = =                     ",
"                        o O O O - > > > 8 8 w r y y d d d g d d d d d f d d d d d y 9 8 w 8 > : : ; O O O o                     ",
"                        # + L % O * * * = = = = - < 3 3 3 3 3 3 3 3 3 3 3 3 3 3 ; - = = = = = * * < % L + #                     ",
"                        + L X.X.u 4 r r r r p y y s Z A S S S D H S S / A A A N s s p s r r r e 4 u X.` L +                     ",
"                        $ U 7.r.{ { 2.G.G.G./.~.~.~.~.~.~.~.}.}.}.}.}.}.~.~.~.~.~./.~./.G.G.G.2.{ X.r.4.U %                     ",
"                        u ~ W.E.o.o.E..X.X XOX+X+XOXOXOX+X@X3X3X3X3X3X3X+X+X+X+X+X@X+XOX X.X.XE.X.o.E.R.~ u                     ",
"                        i ~ R.R.I ^ R..X XoXOX+X+X+XOXOX+XOX+X@X#X@X+X+XOXoX+X+XOX@X+X+XoX X.Xw.^ ^ w.W.~ u                     ",
"                        $ ~ 4.2.L P 4.^. X.X!.W.W.!.{.XXoXOXOXOX+X+XOXOXOXoX X.X!.W.W.!.{. X^.4.U L 3.4.~ u                     ",
"                            ~ W Y U 2.E.'.R.! & u ! 8.'.XX@X#X#X3X3X3X3X+XXX'.8.! $ $ ! P.'.E.2.U % U W                         ",
"                            $ u L U 2.w.^.U.} u u i | 3.U.'.@X4X3X4X5X@X}.P.3.| i $ u } R.^.r.2.W Y $ $                         ",
"                                u U 2.E.[. X{.`.U.1.i @ & | |.4X4X4X5X{.;.& @ i 3.U.!.{.XX.XE.2.U u                             ",
"                                e i 5.w.'.oX3X3X$X!.| $ u <.|.5X5X5X5X|.;.u $ | !.@X3X3XoX'.w.5.Y u                             ",
"                                X 4 Y 5.E. XoX#X3XoX`.~.'..X#X5X5X5X5X#X{.'.W.'.OX#X#XOX XW.5.i O <                             ",
"                                - < u ~ 4.Q..XoX3X3XoXoX$X#X#X#X#X#X#X#X$X$XoXoX#X#XOX.X^.7.~ u < =                             ",
"                            = = 1 9 f | o.r.Q. XOXoX X'.t._.].|.|.|.XX].t.t.'. XOXOX XQ.r.X.| h 9 5 = =                         ",
"                            = 5 0 B D | X.$.r.e.[.'.'.Q.t.t.).).).)._._.t.e.Q.'.'.'.Q.r.O.{ { _ V j 5 :                         ",
"                        = - 5 k m ) >.} } ..#.+.+.*.q.e._.(.t.q.t.q.t.t.(.(.t.q.6.%.+.o...} } _ G n j 5 = =                     ",
"                        = = 7 v a.h._ >.-.} { ` ` ' 0.q.e.e.=.&.0.0.&.=.t.t.=.=.] ` ` X.<.>.>.g.h.y.v 8 - =                     ",
"                        * = 7 v n j.b.n.>.} }  .` ' =.=.*.+.O.@.=.=.@.] +.*.=.&.' ` | ;.8.J.b.x.j.a.c 7 : *                     ",
"                        = - 8 x n s.x.x._ D -.} ..+.&.%.' ` @.*.t.=.&.@.` ' %.&.o.o.<.,.,.J.b.x.h.n x 7 - =                     ",
"                        = : 8 j x m s.s.J N _  .3.6.+.' ` @.7.(.t.).(.7.+.` ' +.6.L.8.,._ G h.s.m x 0 8 : =                     ",
"                        * : 5 8 0 x n m j q D >.Z.8.#.O.` %.t.].].].].t.%.` ' #.3.L.J.N.c 0 m n x w w 5 , ;                     ",
"                            > , 8 j x j 6 7 n _ >.<.3.6.' ] 0.t.].].t.=.] O.1.8.,.>.F.) 8 6 0 c j 8 > > 8 8                     ",
"                            : , 1 7 8 5 = > m d._ >.L.P.#.+.%.0.t.(.=.&.+.#.8.L.>._ ) v 6 = 5 7 8 8 2 2 9 q                     ",
"                        q q 9 8 , : : = = > 0 b ) g.L.U.L.6.@.%.q.9.%.+.1.P.I.L.g.) b 0 > * : : : 2 s h p q                     ",
"                        q q q w , : o = = 6 8 x n d.F.J.J.Z. ...%.%.....,.J.J.F.d.n c 8 , - * : : 9 -.>.A s                     ",
"                        q q q 9 9 2 ; = 6 w t c c J d.k.g.f._ _ O...-.) g.k.k.d.b c c M 0 , : = , N :.3.-.D p q                 ",
"                        q q q q q 8 > : 8 x B B k x m d.a.d.h.f. ...f.d.d.a.d.n c t M M j w = - 8 S Z.L.<.D s w                 ",
"                    q q q q q q q w ; : 8 c n n C C b B J G S.D.A.A.D.g.H J F B C M q q 0 8 > - 8 Z Z.L.<.D p q                 ",
"                    q q q q q q q w = > 0 m j.j.G J G G G f.S.S.S.S.S.N.G B J B C c j 0 0 7 : > 9 D Z.L.3.-.N w                 ",
"                    q q q q q q q w : 6 m s.x.x.h.d.j.b.x.v.v.b.k.h.h.d.d.y.d.G v j 0 0 0 8 : < h ;.H.I.L.,.N q                 ",
"                    q q q q q q 9 w 6 7 v a.x.x.x.x.c.m.m.m.m.c.x.j.j.j.s.a.a.n k 8 q 0 0 5 > 3 _ ,.L.U.U.A.N w                 ",
"                    q q q q q q q q 9 w 5 z d.x.c.c.m.m.m.m.m.m.c.c.c.c.j.y.b k j 0 0 7 , > , N ,.L.L.I.I.Z.Z 9                 ",
"                    q q q q q q q q q 8 , 7 m h.b.v.v.v.v.b.x.z.z.x.z.j.a.y.v 0 q q 0 8 , , w S Z.I.I.L.L.:.N q                 ",
"                        q q         q 9 1 8 c G f.S.S.k.k.f.v z z z z x b V C M M p 8 8 8 w w S Z.I.I.L.D V                     ",
"                        q q         q 9 8 8 q V u.M.N.N.N.H w - * * X - 9 M p M M c 8 8 w q q Z :.H.Z.:.N w                     ",
"                                            8 c S u.C.D.D.:.C q         8 8 8 w 8 w             Z S A N                         ",
"                                            1 w V M.N.D.D.N.F V         2 2 , 8 1 1             w w q w                         ",
"                                            1 q H D.D.D.D.M.H V                                                                 ",
"                                            , q M.D.D.D.D.N.V V                                                                 "
};
