/* XPM */
static char *bcc9f208c5d747b4fb8c06bfa24e777056tS94fbGhG0CL1U[] = {
/* columns rows colors chars-per-pixel */
"64 64 4 1 ",
"  c None",
". c #25131A",
"X c #90919E",
"o c #ADC1CF",
/* pixels */
"                                                                ",
"                                                                ",
"                                                                ",
"                                                                ",
"                                                                ",
"                                                                ",
"                                                                ",
"                                                                ",
"                                                                ",
"                                                                ",
"                                                                ",
"                                                                ",
"                                                                ",
"                                                                ",
"                                                                ",
"                                                                ",
"                                        ........                ",
"                                        ........                ",
"                                        ........                ",
"                                        ........                ",
"                                    ....ooooXXXX....            ",
"                                    ....ooooXXXX....            ",
"                                    ....ooooXXXX....            ",
"                                    ....ooooXXXX....            ",
"            ........................XXXX........XXXX....        ",
"            ........................XXXX........XXXX....        ",
"            ........................XXXX........XXXX....        ",
"            ........................XXXX........XXXX....        ",
"            ....XXXXXXXXXXXXXXXXXXXXXXXX    ....XXXX....        ",
"            ....XXXXXXXXXXXXXXXXXXXXXXXX    ....XXXX....        ",
"            ....XXXXXXXXXXXXXXXXXXXXXXXX    ....XXXX....        ",
"            ....XXXXXXXXXXXXXXXXXXXXXXXX    ....XXXX....        ",
"            ....oooooooooooo........oooo    ....XXXX....        ",
"            ....oooooooooooo........oooo    ....XXXX....        ",
"            ....oooooooooooo........oooo    ....XXXX....        ",
"            ....oooooooooooo........oooo    ....XXXX....        ",
"            ....oooo....oooo    ....oooo    ....oooo....        ",
"            ....oooo....oooo    ....oooo    ....oooo....        ",
"            ....oooo....oooo    ....oooo    ....oooo....        ",
"            ....oooo....oooo    ....oooo    ....oooo....        ",
"            ....oooo    ....        ....oooooooo....            ",
"            ....oooo    ....        ....oooooooo....            ",
"            ....oooo    ....        ....oooooooo....            ",
"            ....oooo    ....        ....oooooooo....            ",
"                ....                    ........                ",
"                ....                    ........                ",
"                ....                    ........                ",
"                ....                    ........                ",
"                                                                ",
"                                                                ",
"                                                                ",
"                                                                ",
"                                                                ",
"                                                                ",
"                                                                ",
"                                                                ",
"                                                                ",
"                                                                ",
"                                                                ",
"                                                                ",
"                                                                ",
"                                                                ",
"                                                                ",
"                                                                "
};
