/* XPM */
static char *_7ac57d03d89425487e4243802edc062rq37I6yct0JdQT2p[] = {
/* columns rows colors chars-per-pixel */
"64 64 22 1 ",
"  c None",
". c #2E2E31",
"X c #245E00",
"o c #4E402B",
"O c gray26",
"+ c #5F5642",
"@ c #535355",
"# c #6C5F44",
"$ c #6F634B",
"% c #7A6B4F",
"& c #6D6D6E",
"* c #6C6C74",
"= c #897D62",
"- c #419D00",
"; c #A08F6D",
": c #AE9B74",
"> c #82828B",
", c #85858D",
"< c #A8A8AB",
"1 c #D4D3E1",
"2 c #E9E8EF",
"3 c white",
/* pixels */
"                                                                ",
"                                                                ",
"                                                                ",
"                                                                ",
"                                                                ",
"                                                                ",
"                        ..................                      ",
"                        ..................                      ",
"                      ..@@&&&&&&&&&&&&&&@@..                    ",
"                      ..@@&&&&&&&&&&&&&&@@..                    ",
"                    ..OO&&&&&&&&&&&&&&&&&&OO..                  ",
"                    ..OO&&&&&&&&&&&&&&&&&&OO..                  ",
"                    ..OO@@&&&&&&&&&&&&&&@@OO..                  ",
"                    ..OO@@&&&&&&&&&&&&&&@@OO..                  ",
"                    OO<<@@@@@@@@@@@@@@@@@@<<OO                  ",
"                    OO<<@@@@@@@@@@@@@@@@@@<<OO                  ",
"                  ..<<<<111111111111111111<<<<..                ",
"                  ..<<<<111111111111111111<<<<..                ",
"            ....OO@@@@<<111111111111111111<<@@@@OO....          ",
"            ....OO@@@@<<111111111111111111<<@@@@OO....          ",
"          ..OO@@&&&&@@@@@@@@@@@@@@@@@@@@@@@@@@&&&&@@OO..        ",
"          ..OO@@&&&&@@@@@@@@@@@@@@@@@@@@@@@@@@&&&&@@OO..        ",
"            ....OO@@&&&&&&&&&&&&&&&&&&&&&&&&&&@@OO....          ",
"            ....OO@@&&&&&&&&&&&&&&&&&&&&&&&&&&@@OO....          ",
"                ........OOOOOOOOOOOOOOOOOO........              ",
"                ........OOOOOOOOOOOOOOOOOO........              ",
"                ..OO..%%::::::oo::::%%%%%%%%%%++oo              ",
"                ..OO..%%::::::oo::::%%%%%%%%%%++oo              ",
"                ..OO@@..::::oooo::::::::::::::;;oo              ",
"                ..OO@@..::::oooo::::::::::::::;;oo              ",
"                ..OO@@..::::33XX::::%%%%##oo%%$$oo              ",
"                ..OO@@..::::33XX::::%%%%##oo%%$$oo              ",
"                ..OO..3333::----::::::::::::::;;oo              ",
"                ..OO..3333::----::::::::::::::;;oo              ",
"                oo1122oo3333::::::%%%%%%##oo%%++oo              ",
"                oo1122oo3333::::::%%%%%%##oo%%++oo              ",
"                  oo,,11,,3333333333::::::::;;oo                ",
"                  oo,,11,,3333333333::::::::;;oo                ",
"                    oooo1122222222222222....oo                  ",
"                    oooo1122222222222222....oo                  ",
"                        oooooooooooooo..OOOO..                  ",
"                        oooooooooooooo..OOOO..                  ",
"                      ..OOOOOO@@@@@@OO@@@@@@@@..                ",
"                      ..OOOOOO@@@@@@OO@@@@@@@@..                ",
"                      ..OO@@&&&&&&@@@@::$$OO&&OO..              ",
"                      ..OO@@&&&&&&@@@@::$$OO&&OO..              ",
"                      ..OOOO@@@@@@22oo%%::oo&&@@..              ",
"                      ..OOOO@@@@@@22oo%%::oo&&@@..              ",
"                        oo1133333322oo3333oo&&@@OO..            ",
"                        oo1133333322oo3333oo&&@@OO..            ",
"                          oo11332222oo2222oo&&@@OO..            ",
"                          oo11332222oo2222oo&&@@OO..            ",
"                          oo++1111;;==oooooo@@@@OO..            ",
"                          oo++1111;;==oooooo@@@@OO..            ",
"                          oo==oo$$$$++oo**>>@@@@OO..            ",
"                          oo==oo$$$$++oo**>>@@@@OO..            ",
"                          oo11oo;;;;11oooooo@@OO..              ",
"                          oo11oo;;;;11oooooo@@OO..              ",
"                            oooo111111oo    ....                ",
"                            oooo111111oo    ....                ",
"                                oooooo                          ",
"                                oooooo                          ",
"                                                                ",
"                                                                "
};
