/* XPM */
static char *_5b6cb942f474fc9a7d5e8963ee0f7d3RLENVcHzyH4z3jW1[] = {
/* columns rows colors chars-per-pixel */
"64 64 20 1 ",
"  c None",
". c #2E2E31",
"X c #245E00",
"o c #4E402B",
"O c gray26",
"+ c #5F5642",
"@ c #535355",
"# c #6F634B",
"$ c #7A6B4F",
"% c #6D6D6E",
"& c #6C6C74",
"* c #897D62",
"= c #419D00",
"- c #A08F6D",
"; c #AE9B74",
": c #85858D",
"> c #A8A8AB",
", c #D4D3E1",
"< c #E9E8EF",
"1 c white",
/* pixels */
"                                                                ",
"                                                                ",
"                                                                ",
"                                                                ",
"                                                                ",
"                                                                ",
"                        ..................                      ",
"                        ..................                      ",
"                      ..@@%%%%%%%%%%%%%%@@..                    ",
"                      ..@@%%%%%%%%%%%%%%@@..                    ",
"                    ..OO%%%%%%%%%%%%%%%%%%OO..                  ",
"                    ..OO%%%%%%%%%%%%%%%%%%OO..                  ",
"                    ..OO@@%%%%%%%%%%%%%%@@OO..                  ",
"                    ..OO@@%%%%%%%%%%%%%%@@OO..                  ",
"                    OO>>@@@@@@@@@@@@@@@@@@>>OO                  ",
"                    OO>>@@@@@@@@@@@@@@@@@@>>OO                  ",
"                  ..>>>>,,,,,,,,,,,,,,,,,,>>>>..                ",
"                  ..>>>>,,,,,,,,,,,,,,,,,,>>>>..                ",
"            ....OO@@@@>>,,,,,,,,,,,,,,,,,,>>@@@@OO....          ",
"            ....OO@@@@>>,,,,,,,,,,,,,,,,,,>>@@@@OO....          ",
"          ..OO@@%%%%@@@@@@@@@@@@@@@@@@@@@@@@@@%%%%@@OO..        ",
"          ..OO@@%%%%@@@@@@@@@@@@@@@@@@@@@@@@@@%%%%@@OO..        ",
"            ....OO@@%%%%%%%%%%%%%%%%%%%%%%%%%%@@OO....          ",
"            ....OO@@%%%%%%%%%%%%%%%%%%%%%%%%%%@@OO....          ",
"                ........OOOOOOOOOOOOOOOOOO........              ",
"                ........OOOOOOOOOOOOOOOOOO........              ",
"                oo##$$..OOOO..;;$$;;;;;;oo;;$$##oo              ",
"                oo##$$..OOOO..;;$$;;;;;;oo;;$$##oo              ",
"                oo--..OO@@@@OO..;;;;;;oooo;;;;--oo              ",
"                oo--..OO@@@@OO..;;;;;;oooo;;;;--oo              ",
"              oooo##..OO@@@@OO..11;;;;11XX;;$$##oooo            ",
"              oooo##..OO@@@@OO..11;;;;11XX;;$$##oooo            ",
"                oo--;;..OOOO..111111;;====;;;;--oo              ",
"                oo--;;..OOOO..111111;;====;;;;--oo              ",
"              oooo++OO$$;;;;1111oo1111;;;;$$##++oooo            ",
"              oooo++OO$$;;;;1111oo1111;;;;$$##++oooo            ",
"                  ..**<<111111::,,::111111<<**oo                ",
"                  ..**<<111111::,,::111111<<**oo                ",
"                    oooo,,,,<<<<<<<<<<,,,,oooo                  ",
"                    oooo,,,,<<<<<<<<<<,,,,oooo                  ",
"                  ..OOOOooooooooooooooooooOOOO..                ",
"                  ..OOOOooooooooooooooooooOOOO..                ",
"                ....ooOO@@@@OOOOOOOOOO@@@@OOoo....              ",
"                ....ooOO@@@@OOOOOOOOOO@@@@OOoo....              ",
"                ..oo##;;OO@@%%%%%%%%%%@@OO;;##oo..              ",
"                ..oo##;;OO@@%%%%%%%%%%@@OO;;##oo..              ",
"                oo,,--++oo@@@@%%%%%%@@@@oo++--,,oo              ",
"                oo,,--++oo@@@@%%%%%%@@@@oo++--,,oo              ",
"              ..oo,,,,oooo11111111111111oooo,,,,oo..            ",
"              ..oo,,,,oooo11111111111111oooo,,,,oo..            ",
"              ....oooo..oo##1111111111##oo..oooo&&oo            ",
"              ....oooo..oo##1111111111##oo..oooo&&oo            ",
"              ..........oo--**,,,,,,**--oooooo&&&&oo            ",
"              ..........oo--**,,,,,,**--oooooo&&&&oo            ",
"              ..........oo####oooooo####oo&&&&&&oo..            ",
"              ..........oo####oooooo####oo&&&&&&oo..            ",
"                ..      oo<<--oooooo--<<oooooooo..              ",
"                ..      oo<<--oooooo--<<oooooooo..              ",
"                        oo,,,,oo  oo,,,,oo                      ",
"                        oo,,,,oo  oo,,,,oo                      ",
"                          oooo      oooo                        ",
"                          oooo      oooo                        ",
"                                                                ",
"                                                                "
};
