/* XPM */
static char *_db13d46082f4dade213ecd40e4d5085safaIjsI2uvJhXw1[] = {
/* columns rows colors chars-per-pixel */
"64 64 21 1 ",
"  c None",
". c #2E2E31",
"X c #4E402B",
"o c gray26",
"O c #5F5642",
"+ c #535355",
"@ c #6C5F44",
"# c #6F634B",
"$ c #7A6B4F",
"% c #6D6D6E",
"& c #6C6C74",
"* c #897D62",
"= c #419D00",
"- c #A08F6D",
"; c #AE9B74",
": c #82828B",
"> c #85858D",
", c #A8A8AB",
"< c #D4D3E1",
"1 c #E9E8EF",
"2 c white",
/* pixels */
"                                                                ",
"                                                                ",
"                                                                ",
"                                                                ",
"                                                                ",
"                                                                ",
"                        ..................                      ",
"                        ..................                      ",
"                      ..++%%%%%%%%%%%%%%++..                    ",
"                      ..++%%%%%%%%%%%%%%++..                    ",
"                    ..oo%%%%%%%%%%%%%%%%%%oo..                  ",
"                    ..oo%%%%%%%%%%%%%%%%%%oo..                  ",
"                    ..oo++%%%%%%%%%%%%%%++oo..                  ",
"                    ..oo++%%%%%%%%%%%%%%++oo..                  ",
"                    oo,,++++++++++++++++++,,oo                  ",
"                    oo,,++++++++++++++++++,,oo                  ",
"                  ..,,,,<<<<<<<<<<<<<<<<<<,,,,..                ",
"                  ..,,,,<<<<<<<<<<<<<<<<<<,,,,..                ",
"            ....oo++++,,<<<<<<<<<<<<<<<<<<,,++++oo....          ",
"            ....oo++++,,<<<<<<<<<<<<<<<<<<,,++++oo....          ",
"          ..oo++%%%%++++++++++++++++++++++++++%%%%++oo..        ",
"          ..oo++%%%%++++++++++++++++++++++++++%%%%++oo..        ",
"            ....oo++%%%%%%%%%%%%%%%%%%%%%%%%%%++oo....          ",
"            ....oo++%%%%%%%%%%%%%%%%%%%%%%%%%%++oo....          ",
"                ........oooooooooooooooooo........              ",
"                ........oooooooooooooooooo........              ",
"                XXOO$$$$$$$$$$;;..oooo..;;$$;;**XX              ",
"                XXOO$$$$$$$$$$;;..oooo..;;$$;;**XX              ",
"                XX--;;;;;;;;;;..oo++++oo..;;;;XXXX              ",
"                XX--;;;;;;;;;;..oo++++oo..;;;;XXXX              ",
"                XX##$$XX@@$$$$..oo++++oo..22;;22XX              ",
"                XX##$$XX@@$$$$..oo++++oo..22;;22XX              ",
"                ..--;;;;;;;;;;;;..oooo..222222==XX              ",
"                ..--;;;;;;;;;;;;..oooo..222222==XX              ",
"                XXoo$$XX@@$$oooo;;;;;;2222XX11<<XX              ",
"                XXoo$$XX@@$$oooo;;;;;;2222XX11<<XX              ",
"                  XXoooooooo;;2222222222>><<>>XX                ",
"                  XXoooooooo;;2222222222>><<>>XX                ",
"                    XX....11111111111111<<XXXX                  ",
"                    XX....11111111111111<<XXXX                  ",
"                    ..oooo..XXXXXXXXXXXXXX                      ",
"                    ..oooo..XXXXXXXXXXXXXX                      ",
"                  ..++++++++oo++++++oooooo..                    ",
"                  ..++++++++oo++++++oooooo..                    ",
"                ..oo%%oo##;;++++%%%%%%++oo..                    ",
"                ..oo%%oo##;;++++%%%%%%++oo..                    ",
"                ..++%%XX;;$$XX11++++++oooo..                    ",
"                ..++%%XX;;$$XX11++++++oooo..                    ",
"              ..oo++%%XX2222XX11222222<<XX                      ",
"              ..oo++%%XX2222XX11222222<<XX                      ",
"              ..oo++%%XX1111XX111122<<XX                        ",
"              ..oo++%%XX1111XX111122<<XX                        ",
"              ..oo++++XXXXXX**--<<<<OOXX                        ",
"              ..oo++++XXXXXX**--<<<<OOXX                        ",
"              ..oo++++::&&XXOO####XX**XX                        ",
"              ..oo++++::&&XXOO####XX**XX                        ",
"                ..oo++XXXXXX<<----XX<<XX                        ",
"                ..oo++XXXXXX<<----XX<<XX                        ",
"                  ....    XX<<<<<<XXXX                          ",
"                  ....    XX<<<<<<XXXX                          ",
"                            XXXXXX                              ",
"                            XXXXXX                              ",
"                                                                ",
"                                                                "
};
