/* XPM */
static char *_caf9434da674b8989ed3442919226ceJNXXUouCQMGnHbal[] = {
/* columns rows colors chars-per-pixel */
"64 64 14 1 ",
"  c None",
". c #2E2E31",
"X c #4E402B",
"o c gray26",
"O c #5F5642",
"+ c #535355",
"@ c #6F634B",
"# c #7A6B4F",
"$ c #6D6D6E",
"% c #897D62",
"& c #A08F6D",
"* c #AE9B74",
"= c #A8A8AB",
"- c #D4D3E1",
/* pixels */
"                                                                ",
"                                                                ",
"                                                                ",
"                                                                ",
"                                                                ",
"                                                                ",
"                        ..................                      ",
"                        ..................                      ",
"                      ..++$$$$$$$$$$$$$$++..                    ",
"                      ..++$$$$$$$$$$$$$$++..                    ",
"                    ..oo$$$$$$$$$$$$$$$$$$oo..                  ",
"                    ..oo$$$$$$$$$$$$$$$$$$oo..                  ",
"                    ..oo++$$$$$$$$$$$$$$++oo..                  ",
"                    ..oo++$$$$$$$$$$$$$$++oo..                  ",
"                    oo==++++++++++++++++++==oo                  ",
"                    oo==++++++++++++++++++==oo                  ",
"                  ..====------------------====..                ",
"                  ..====------------------====..                ",
"            ....oo++++==------------------==++++oo....          ",
"            ....oo++++==------------------==++++oo....          ",
"          ..oo++$$$$++++++++++++++++++++++++++$$$$++oo..        ",
"          ..oo++$$$$++++++++++++++++++++++++++$$$$++oo..        ",
"            ..++++$$$$$$$$$$$$$$$$$$$$$$$$$$$$$$++++..          ",
"            ..++++$$$$$$$$$$$$$$$$$$$$$$$$$$$$$$++++..          ",
"              ....oo++$$$$$$$$$$$$$$$$$$$$$$++oo....            ",
"              ....oo++$$$$$$$$$$$$$$$$$$$$$$++oo....            ",
"                XX......oooooooooooooooooo......XX              ",
"                XX......oooooooooooooooooo......XX              ",
"                XX&&********##**##oo##********&&XX              ",
"                XX&&********##**##oo##********&&XX              ",
"              XXXX@@####********##**oo****####@@XXXX            ",
"              XXXX@@####********##**oo****####@@XXXX            ",
"                XX&&&&**####**********oo##**&&&&XX              ",
"                XX&&&&**####**********oo##**&&&&XX              ",
"              XXXXOO@@&&****************oooo@@OOXXXX            ",
"              XXXXOO@@&&****************oooo@@OOXXXX            ",
"                  XX%%@@@@@@@@&&&&&&@@@@@@@@....                ",
"                  XX%%@@@@@@@@&&&&&&@@@@@@@@....                ",
"                  ..XXXX%%%%&&&&&&&&&&%%%%XXXX..                ",
"                  ..XXXX%%%%&&&&&&&&&&%%%%XXXX..                ",
"                ..oo..ooXXXXXXXXXXXXXXXXXXoo..oo..              ",
"                ..oo..ooXXXXXXXXXXXXXXXXXXoo..oo..              ",
"                ..oo....++++$$$$$$$$$$++++....oo..              ",
"                ..oo....++++$$$$$$$$$$++++....oo..              ",
"              ..oo..oooo++++++++++++++++++oooo..oo..            ",
"              ..oo..oooo++++++++++++++++++oooo..oo..            ",
"              ..oo..oo++++++$$$$$$$$$$++++++oo..oo..            ",
"              ..oo..oo++++++$$$$$$$$$$++++++oo..oo..            ",
"              ..oooooo++++$$$$$$$$$$$$$$++++oooooo..            ",
"              ..oooooo++++$$$$$$$$$$$$$$++++oooooo..            ",
"            ..oooooooo++++$$$$$$$$$$$$$$++++oooooooo..          ",
"            ..oooooooo++++$$$$$$$$$$$$$$++++oooooooo..          ",
"            ..oooooo++++$$$$$$$$$$$$$$$$$$++++oooooo..          ",
"            ..oooooo++++$$$$$$$$$$$$$$$$$$++++oooooo..          ",
"              ....oo++++$$$$++++++++++$$$$++++oo....            ",
"              ....oo++++$$$$++++++++++$$$$++++oo....            ",
"                XX..............................                ",
"                XX..............................                ",
"                  XXXXXXXXXXXXXX  XX----XX                      ",
"                  XXXXXXXXXXXXXX  XX----XX                      ",
"                          XXXX      XXXX                        ",
"                          XXXX      XXXX                        ",
"                                                                ",
"                                                                "
};
