/* XPM */
static char *dca00cc81fdf4fc7972c9d2cc29c164769L9HWfD4M0YSfEy[] = {
/* columns rows colors chars-per-pixel */
"64 64 173 2 ",
"   c None",
".  c #090517",
"X  c #0E0A18",
"o  c #110C19",
"O  c #16111A",
"+  c #1B131C",
"@  c #23161F",
"#  c #251E1E",
"$  c #2E1C1E",
"%  c #311F1F",
"&  c #3B271F",
"*  c #3D281F",
"=  c #231720",
"-  c #271921",
";  c #2A1A21",
":  c #361F27",
">  c #332020",
",  c #3D2325",
"<  c #3A2821",
"1  c #3E232C",
"2  c #342231",
"3  c #392331",
"4  c #3D2738",
"5  c #432525",
"6  c #40242D",
"7  c #4F292C",
"8  c #542E2F",
"9  c #423724",
"0  c #493520",
"q  c #453924",
"w  c #4A3D24",
"e  c #442731",
"r  c #472C37",
"t  c #4B2A32",
"y  c #442938",
"u  c #4B2C38",
"i  c #552D33",
"p  c #5D2F31",
"a  c #532E39",
"s  c #592F39",
"d  c #543136",
"f  c #5D3235",
"g  c #563C37",
"h  c #573039",
"j  c #5E3239",
"k  c #633A26",
"l  c #6B3C2B",
"z  c #723F2D",
"x  c #643535",
"c  c #683737",
"v  c #653C35",
"b  c #693836",
"n  c #633339",
"m  c #6C3639",
"M  c #6C3938",
"N  c #703737",
"B  c #733B36",
"V  c #7B3D37",
"C  c #703739",
"Z  c #753939",
"A  c #783A3A",
"S  c #4E4126",
"D  c #624224",
"F  c #684F2A",
"G  c #70402C",
"H  c #644036",
"J  c #6D4033",
"K  c #744234",
"L  c #7B4534",
"P  c #7D4936",
"I  c #715237",
"U  c #71563B",
"Y  c #7A652E",
"T  c #8B522C",
"R  c #8A5A2D",
"E  c #844633",
"W  c #864A31",
"Q  c #8A4B32",
"!  c #8F5032",
"~  c #965D31",
"^  c #985F32",
"/  c #9C672E",
"(  c #886337",
")  c #8C6E3D",
"_  c #976336",
"`  c #9D6132",
"'  c #926B37",
"]  c #9E6935",
"[  c #916B38",
"{  c #A7672F",
"}  c #A26433",
"|  c #A46936",
" . c #B26F30",
".. c #B47231",
"X. c #B47936",
"o. c #9F8738",
"O. c #B5822D",
"+. c #BD862F",
"@. c #A28A38",
"#. c #BD8D37",
"$. c #B28F3A",
"%. c #B4903B",
"&. c #BE943C",
"*. c #C58433",
"=. c #C88531",
"-. c #CC8D34",
";. c #C58E3A",
":. c #C98D38",
">. c #D08F33",
",. c #C39136",
"<. c #CE9033",
"1. c #C99D34",
"2. c #C7903B",
"3. c #C9913B",
"4. c #D19133",
"5. c #D39D36",
"6. c #DD9C35",
"7. c #C6A43C",
"8. c #CAA73D",
"9. c #CBA83D",
"0. c #DDA536",
"q. c #D3AC3E",
"w. c #DDAB3C",
"e. c #D5B13F",
"r. c #E7A634",
"t. c #E9A734",
"y. c #EBAA34",
"u. c #E4AB38",
"i. c #E9AD39",
"p. c #F0AE34",
"a. c #EBB036",
"s. c #EDB239",
"d. c #EDB83C",
"f. c #F3B336",
"g. c #FBBB35",
"h. c #F2B63A",
"j. c #F5B83A",
"k. c #FFC537",
"l. c #F5C23D",
"z. c #FEC63C",
"x. c #FFCB3C",
"c. c #FFC83C",
"v. c #FFCD3C",
"b. c #FFCB3C",
"n. c #CD9E40",
"m. c #C4A740",
"M. c #C6A941",
"N. c #C6A940",
"B. c #C8AB41",
"V. c #C8AB41",
"C. c #D2A040",
"Z. c #D1A040",
"A. c #D2AC43",
"S. c #DEAB41",
"D. c #D6B240",
"F. c #D3B142",
"G. c #DAB540",
"H. c #DDBB49",
"J. c #E9B741",
"K. c #E7BB45",
"L. c #EABC45",
"P. c #EFC044",
"I. c #EEC345",
"U. c #EDC648",
"Y. c #F2C144",
"T. c #F3C344",
"R. c #FFCE43",
"E. c #FFD344",
"W. c #FFD646",
"Q. c #FCD248",
"!. c #FFDC49",
"~. c #FFDE49",
"^. c #FFDA48",
/* pixels */
"                                                                                                                                ",
"                                                                                                                                ",
"                                                                                                                                ",
"                                                                                                                                ",
"                                                                                                                                ",
"                                                                                                                                ",
"                                                                                                                                ",
"                                                                                                                                ",
"                                X o o o o o o O O O O o                                                                         ",
"                                w S w S w 0 * % ; - ; -                                                                         ",
"                            . q o.N.N.7.1.+.R l 8 e t 6 - o o o O O                                                             ",
"                            9 Y D.~.~.R.j.4.} E M n n i , ; $ $ ; ;                                                             ",
"                        . 9 o.D.j.v.v.j.-.} P M C C C m x p p p p 8 $ o o O O O                                                 ",
"                        q Y e.W.k.g.p.4.` L c n C Z Z Z A Z Z A A x : $ ; $ ; ;                                                 ",
"                    o w @.e.l.c.k.p.=.` L c m C Z Z Z A Z A A A A N x p p p p 7 ; o o o o X                                     ",
"                    X w N.~.c.g.p.>.` L c x C Z Z Z Z Z Z Z Z Z Z Z A Z A A A x 5 < 0 S S w                                     ",
"                    . w N.~.v.p.=.^ L c m C Z Z Z Z Z Z Z Z Z Z Z Z Z Z A Z Z Z z R $.N.B.@.q X o O o O                         ",
"                    q Y e.R.h.>.^ E c n C Z Z Z Z Z Z Z Z Z Z Z Z Z Z Z Z Z A Q | 3.Y.~.~.q.F $ ; - ; $                         ",
"                X w @.e.l.s.=.` L c m C Z Z Z Z A Z Z Z A Z Z Z A Z Z Z Z V E | C.Y.R.c.v.u./ l 8 t i 8 - o                     ",
"                X w B.~.v.r. .W c n m Z Z Z Z Z Z Z Z Z Z Z Z Z Z Z Z Z A W | 2.Y.E.k.g.p.4.} E m m N x 5 ;                     ",
"                . w 8.~.v.t...W c n C Z Z Z Z Z Z Z Z Z Z Z Z Z Z Z Z V E | C.Y.T.k.k.f.=.} L c m Z Z C x 7 ; o                 ",
"                q Y F.R.f.4.} L c n C Z Z Z Z A A Z Z Z A Z Z Z Z Z V Q | 3.L.E.c.g.p.-.^ L c m N Z Z Z A x , $                 ",
"            o w @.K.l.s.=.` L b m C Z Z Z Z Z Z Z Z Z Z Z Z Z Z Z A E | C.Y.z.k.k.p.=.} L c m C Z Z Z A A N x 7 ; O             ",
"            o q $.T.k.t...W c j C Z A Z Z Z Z Z Z Z Z Z Z Z Z Z V Q | ;.L.W.k.g.p.>.` L c n C Z Z Z Z Z Z A A p ; O             ",
"            o < R :.f.y...Q c j C Z Z Z Z Z Z Z Z Z Z Z Z Z Z V E | C.P.z.k.k.y.=.` L c m C Z Z Z Z Z Z Z A A f ; O             ",
"            o < R *.6.<./ K x n m C Z Z Z Z Z Z A Z Z Z Z Z Z V Q X.L.W.b.g.p.4.^ L m n C A Z Z Z Z Z Z Z Z c i $ O             ",
"            o q %.S.*.~ H u h j n m C Z Z Z Z Z A Z Z Z Z Z Z V Q X.K.^.b.y.=.` L c m C Z Z Z Z A Z A A A m a 3 @ o O           ",
"            o S V.T.;.~ v r a h s c Z V V V Z Z Z Z Z Z Z Z V Q | :.L.E.b.r. .W x n m A Z Z Z A A C c x n j u 2 @ O O O         ",
"            o S M.Q.h.-.` J u y a c L Q ! Q V Z Z Z Z Z Z A Q | q.L.T.k.k.y...W c j m Z Z Z Z A A m a y y u u e - O O O         ",
"            o w M.!.v.r...E d y f L | X.X.| Q V V A Z Z A V ! X.J.^.c.g.y.4.} L c m C A A C m x n s u 4 4 y h t ; O O O         ",
"            o S M.^.b.r...W x f L | Z.I.L.C.| Q Q Q V Z Z V ! ..J.^.b.y.=.^ L M m C Z Z A m u y y u u a a h j t - O O O         ",
"            o S m.^.b.r...W v b W X.K.~.~.Y.;.X.X.| Q A c N Q X.L.^.b.r. .W c n C C m m x s u 4 4 y a n j j n e ; o O O         ",
"            X S 7.^.c.r...W c c W X.K.^.E.z.Y.I.I.Z.| L d f W X.L.^.v.r...Q c n Z m a y y r a a a a h n j n j t ; O O O         ",
"            o S m.^.v.r...W c c W X.K.Q.s.0.A.H.Q.d.X.W d u v ] n.J.i.:.^ K j s n s y 4 4 y a j j j j j j j j e # O O O         ",
"            o S m.^.v.r...W v c Q X.K.U.&.[ U ) w.s...W x u r H _ .. .^ H r y 4 y r u a a a j j n j j n j j n t - O O O         ",
"            o S m.^.k.r...W c c W X.K.U.&.( g I 5.y...W b d u H _ X...^ H y y 4 4 r a j n j j j j j n n c n n t - o O O         ",
"            o S m.^.c.r...W c c W X.K.Q.d.,.( ' 0.y...W c x K _ 8.J.i.<.` K f a a a j j j n j n j n M C C m n e ; O O O         ",
"            X S m.^.v.r...W c c Q X.L.^.v.a.#.#.i.t...W c c Q X.L.^.v.t...W b h h j j n j f n n n n C A Z C n t ; O O O         ",
"            X S 7.^.c.r. .Q c v W X.L.^.v.g.a.a.g.t...Q c v Q X.J.^.c.t...W M f j j n j j n m C C C Z Z Z C n t - o O O         ",
"            X S m.^.v.r...W c c L ] Z.d.i.y.g.k.k.t...Q c c W X.K.^.c.t...Q b s j j n n n c C A A Z Z Z A N n t ; O O O         ",
"            o S m.^.b.r...W c h h K ] ....*.p.k.k.t...Q b v W X.L.Q.b.r. .W b h j n m C N N Z Z Z Z Z Z Z C n t - O O O         ",
"            X S m.W.b.r. .Q c s a v L Q E } 4.y.y.4.} L c M Q X.K.^.b.r...Q b f n c C Z Z A Z Z Z Z A Z A Z n t # O O O         ",
"            o S M.^.b.r...W b f n c c c n L } ....} L c m V Q X.K.^.b.r. .W c f m C Z Z Z Z Z Z Z Z Z Z Z C n t - o O O         ",
"            o S N.~.v.y...Q b n C Z n n n M L Q W E b n N V ! ..K.^.z.r...Q c n m A Z Z Z Z Z Z Z Z Z Z Z C n t - o O O         ",
"            o S B.~.v.y...W c n C Z C m m M M b c m m N Z V Q X.J.^.b.r. .Q c n C Z Z Z Z Z Z Z Z Z Z A Z C n t $ O O O         ",
"            X w @.9.1.O.R l n n m C A Z Z C n n s m N A A A ! X.K.^.b.r. .Q c n C Z Z A Z Z Z Z Z Z Z Z A C n t - O O O         ",
"                w S w 0 * 5 i n n c N A V Z C M m C Z Z Z V ! ..K.^.z.r...Q c f m Z Z Z Z Z Z Z Z Z Z A A C c e - o O O         ",
"                o o o o o @ 6 t t t p n m C C C C C Z A Z V Q X.K.Q.b.r...W c n C Z Z Z Z Z Z A Z Z N C Z x a 1 - O O +         ",
"                o o O o O + - ; = - ; 1 i n n n n n C Z Z L ! X.K.W.c.r...W c f C Z Z Z Z Z Z A A C c n n i : @ + O + O         ",
"                  O O O O O o O O O O @ 1 u t t t i m C C V Q X.K.^.c.r...Q c n m Z A Z Z Z C C C x i u u 1 @ o O O O O         ",
"                    O O O O O O O O O + @ - - # - : i n n B ! X.L.^.c.r. .Q b n C Z A Z A C c n n i : - - - + O O O O O         ",
"                      O + + O O O O O O O o O O o - 6 e e 8 l ] K.^.v.t...W b j m Z C C m m s e t 6 @ o O O O + O O O           ",
"                                + O + + O O O O O + - ; - - ; F e.!.v.t...W M n C C c n n i : - - - + O o O O O O O             ",
"                                  O O O O O O O O O O O O o o q o.8.1.+.{ Q M n m c i u u 3 - o o O O O + O O O O               ",
"                                            O O O O O O o O o # q S w D T T N s n i : - - = + O O O O + O O O O                 ",
"                                              O O O O O O O O O o X X $ k G f t t 1 - o O O O O O O O O O O +                   ",
"                                                        + O O O O o O + $ > ; - ; - + O O O + O O O + O                         ",
"                                                          O O O O O O O O O O O o O O O O O O O O O O                           ",
"                                                                    O O O O O O O O O + O O O O                                 ",
"                                                                      O O O O O O O O O O O +                                   ",
"                                                                            O O + O O O                                         ",
"                                                                              O O + +                                           ",
"                                                                                                                                ",
"                                                                                                                                "
};
