/* XPM */
static char *_d83775b91624ae582240e14b223967d6gsStpbDpVWQsw0k[] = {
/* columns rows colors chars-per-pixel */
"64 64 218 2 ",
"   c None",
".  c #3E3E3E",
"X  c #403E3E",
"o  c #725A1E",
"O  c #46443C",
"+  c #544F3C",
"@  c #59543E",
"#  c #685C3B",
"$  c #6C592A",
"%  c #7F6623",
"&  c #7A652C",
"*  c #766539",
"=  c #6F633C",
"-  c #3E3F42",
";  c #3F4041",
":  c #434343",
">  c #4A4845",
",  c #4B4B4C",
"<  c #474747",
"1  c #514E4A",
"2  c #51514D",
"3  c #59544F",
"4  c #5D5947",
"5  c #4A5354",
"6  c #4B5B5B",
"7  c #545353",
"8  c #5A5654",
"9  c #5B5856",
"0  c #5D5C5B",
"q  c #54585B",
"w  c #4D4E51",
"e  c #665B43",
"r  c #615F5D",
"t  c #645C55",
"y  c #766640",
"u  c #796B44",
"i  c #6B6156",
"p  c #65635D",
"a  c #6B645D",
"s  c #6C695D",
"d  c #7A6655",
"f  c #7E6956",
"g  c #7B695B",
"h  c #74675A",
"j  c #706D56",
"k  c #575A65",
"l  c #585C71",
"z  c #586365",
"x  c #5C6675",
"c  c #5B7578",
"v  c #4B6060",
"b  c #626263",
"n  c #646B6D",
"m  c #6B6B6B",
"M  c #696965",
"N  c #716F62",
"B  c #757264",
"V  c #7D7B62",
"C  c #757269",
"Z  c #656875",
"A  c #677978",
"S  c #797876",
"D  c #826A26",
"F  c #8B7329",
"G  c #8A732C",
"H  c #93792C",
"J  c #90772B",
"K  c #897439",
"L  c #927A34",
"P  c #816D3D",
"I  c #887649",
"U  c #826C57",
"Y  c #896E56",
"T  c #826C5A",
"R  c #896F59",
"E  c #8B7059",
"W  c #877656",
"Q  c #927D59",
"!  c #927B49",
"~  c #847562",
"^  c #927F77",
"/  c #9C822F",
"(  c #9E8432",
")  c #96833D",
"_  c #A48B35",
"`  c #A98E34",
"'  c #A48C3B",
"]  c #A18732",
"[  c #AD953B",
"{  c #AB9237",
"}  c #B19A3E",
"|  c #998442",
" . c #958459",
".. c #968A55",
"X. c #AE9943",
"o. c #A99549",
"O. c #B19C48",
"+. c #AF9258",
"@. c #B5A34A",
"#. c #BAA84C",
"$. c #B7A756",
"%. c #BAAB51",
"&. c #898569",
"*. c #978965",
"=. c #878679",
"-. c #9D997B",
";. c #979274",
":. c #948E72",
">. c #A69669",
",. c #A49A79",
"<. c #B5936B",
"1. c #B5A576",
"2. c #C1B45B",
"3. c #C3AD5D",
"4. c #C6BA66",
"5. c #C5A37A",
"6. c #C7BC74",
"7. c #CBA875",
"8. c #C19863",
"9. c #CDC57A",
"0. c #D3C47B",
"q. c #D0C16F",
"w. c #757683",
"e. c #657F83",
"r. c #807A81",
"t. c #5D8588",
"y. c #5D9A99",
"u. c #5F8D90",
"i. c #638487",
"p. c #7A8484",
"a. c #669597",
"s. c #6C9190",
"d. c #7B84B6",
"f. c #64A7A7",
"g. c #72ACA4",
"h. c #68B1AD",
"j. c #65B9B6",
"k. c #73B7B0",
"l. c #76C5BD",
"z. c #68CAC4",
"x. c #7FCAC0",
"c. c #828182",
"v. c #8E8786",
"b. c #988681",
"n. c #9F8B81",
"m. c #978581",
"M. c #97958B",
"N. c #A59D83",
"B. c #9CA38D",
"V. c #95A794",
"C. c #91B19F",
"Z. c #ABA589",
"A. c #B3AB8D",
"S. c #BDAB83",
"D. c #ABA991",
"F. c #B2AD92",
"G. c #A5B198",
"H. c #BAB396",
"J. c #BCB699",
"K. c #B8B395",
"L. c #BFB28A",
"P. c #888AA4",
"I. c #A39FB8",
"U. c #8BBBAA",
"Y. c #A8B9A1",
"T. c #C8AB88",
"R. c #D4AE84",
"E. c #C6B58D",
"W. c #D7B589",
"Q. c #CCBB94",
"!. c #C4BA9C",
"~. c #C7B99B",
"^. c #D7BA95",
"/. c #C6BFA2",
"(. c #8FC3B3",
"). c #B4C4AC",
"_. c #D3C989",
"`. c #D9C699",
"'. c #DBD597",
"]. c #D0C68B",
"[. c #E1C79B",
"{. c #E6D59B",
"}. c #CCC3A4",
"|. c #C7C0A3",
" X c #DACBA4",
".X c #DED2A7",
"XX c #E4CAA6",
"oX c #E7D7AA",
"OX c #EDDBB3",
"+X c #EDD3B0",
"@X c #F2DDB6",
"#X c #F4DFB8",
"$X c #EEE2B3",
"%X c #F4E3BA",
"&X c #F5E7B9",
"*X c #EFE0A9",
"=X c #8893D7",
"-X c #949EDB",
";X c #A8ACD8",
":X c #B2B1D7",
">X c #B7B5D8",
",X c #9CA6E7",
"<X c #B2B7E5",
"1X c #A5B4FF",
"2X c #B3BAEF",
"3X c #C5BFD7",
"4X c #BAC2FD",
"5X c #CAC3D7",
"6X c #CBC4D7",
"7X c #C6C0D7",
"8X c #FCEDC3",
"9X c #F7E9C0",
"0X c #FEF1C6",
"qX c #FFF3C9",
"wX c #C4CBFF",
"eX c #C9CFFF",
"rX c #D8DAFF",
"tX c #E2E2FF",
/* pixels */
"                                                                                                                                ",
"                                                                                                                                ",
"                                                                                                                                ",
"                                                                                                                                ",
"                                            - X - X . . . . X . . . . -                                                         ",
"                                            X X : : < < : < < : : : : :                                                         ",
"                                    - - : : , , , 2 7 9 9 8 8 8 , , , < : . . .                                                 ",
"                                    : : : < w 7 7 8 r r p p b r 8 7 7 2 : : : :                                                 ",
"                                X X , , , w 8 0 t r r b r r r r 0 r 0 9 2 < , < - -                                             ",
"                                X < w w 7 8 0 a a a a a a a a h a a p r 8 7 7 , < -                                             ",
"                            . : < , w 7 9 r r a T T T T R T Y Y T g a r r 9 7 2 1 < : -                                         ",
"                            . : , w 7 8 r r a h T R E R R R E E E T h a r r 7 7 2 , : -                                         ",
"                            . : , 7 9 0 r a T R R R R E E E E E E R T g a r r 9 7 , : X                                         ",
"                            . : < 7 0 a a a T E R R E E E E E E R E E T h a r r 7 > - .                                         ",
"                            . . < 7 0 a T T R E R R E R E E E E R E E R T g a 0 7 > - .                                         ",
"                            k l Z l b t T R Y R R R R R Y E Y E R R R Y E T i b x l l k                                         ",
"                - - X X . k w.-X=X=XZ i U Y Y Y Y Y Y Y Y Y E Y Y Y Y Y Y f t Z d.=X-Xw.k . . : X .                             ",
"                : : : - . l =X1X1X,XP.r.r.n.b.b.n.n.n.n.r.,.n.n.-.b.m.m.b.r.^ P.,X1X1X=Xl . O : : :                             ",
"            . : < , , > < l =X1X1X2X<X;X:X:X:X>X3X6X6X6X3X6X6X6X3X3X>X:X:X:X;X<X2X4X1X=Xl < < , < < : .                         ",
"            : : 2 7 7 2 2 Z d.-X;X<X4XwXwXwXeXrXtXtXtXtXtXtXtXtXtXrXrXeXwXwXwXwX<X,X-Xd.x 7 7 7 7 7 : :                         ",
"        : : : 7 8 k r r 0 b Z w.w.P.<XeXwXeXrXrXtXtXtXtXtXtXtXtXtXtXtXrXeXwXwX<XP.w.w.Z b 0 r 9 r 9 2 < : -                     ",
"        . : < , 8 r r a M a a i t ^ I.3X:X>X3X6X3X3X3X3X5X5X5X3X3X6X3X3X>X>X>XI.^ t t a a a p p r 9 7 : : .                     ",
"            : < 2 8 k a g T T U U T ^ r.r.;.n.n.-.n.n.n.n.n.-.n.n.n.n.n.b.b.b.^ ~ f T T T g s 0 9 w < :                         ",
"            . : > , 8 t d U f f T T R E E Y Y Y Y Y Y Y Y Y Y Y Y Y Y Y E T T f T T f f d h t 8 w < : .                         ",
"                : : : , 3 t 8 t a a a h Y Y Y Y Y Y Y Y W R R R Y Y Y Y Y Y d r s i 0 9 4 8 , : : :                             ",
"                . . X : < < < , 7 7 8 9 t d d d d d d f d d d d U U d d d i t 9 q 7 , , < > + + + O                             ",
"                        : : - : : : : : : 1 3 3 3 3 3 3 8 3 3 3 3 8 8 3 1 > < < O : ; ; - 1 * K $ $                             ",
"                        O 1 t s N M M a a a N N C C B B C B j i e t 4 1 + X + 4 4 4 @ @ 4 y ( ( D o                             ",
"                        # T ,.~.~. X}.}.~.~.~.~.~.~.!.~.}.}.1.o.| K * e # * K L o...) ) ..o.[ / D o                             ",
"                        u  .^.%X8X8X0X8X#X@X#X#X#X@X#X%X&X*Xq.@.[ )  .*.*.Q | X.2.2.} } %.#.} / % o                             ",
"                        y Q T.+X@X#X%X#X#X@X@X#X#X#X#X#X%X{.3.' K  .S.`.XXQ. .| %.%.} ` } } { ( D o                             ",
"                        y Q T.XX+X#X#X+X+X XQ.E.T.Q.XXOX%X[.O.L ! >.^.@X0XXX*.I o.#.} ` ` ` ( H % o                             ",
"                        y  .Q.@X9X&X&XoX}.1.W y =  .H.OX9X_.| K 1.^.W.[.%X.X .I | } { ` ` ( F %                                 ",
"                        y Q Q.$X8X&X}.S.>.*.u = y  .Q.$X0XoX>.+.XX+XR.R.OXXX .P ( ` ` ` ( H % o                                 ",
"                        y Q T.+X8X.X*.# # u >.L.|.'.$X9X0X&XoXoX&XOXR.R.oX`.*.P ( ` ` ( F %                                     ",
"                        * ! 1.`.$X X*.y y  .!.%X8XqX0X0X0X0XqX0X0XOXW.R.Q.T. .K ( ` ( J % o                                     ",
"                        $ K $.9.'..X`.|.E.`.OX8XqX0X0X0X0X0XqX0X#X+XXXT.>.Q ] ' ` ( F %                                         ",
"                        o G O.q.9.'.$X&X#X#X9X8X0XqX0X0XqX&X&X*X+XXXXXT.Q ! ' _ ( H % o                                         ",
"                        o G @.q.q.9.'.oXXXXXOX9X0XqX0XqX0X&X_.0.^.XXXXR.5.+.o.H G %                                             ",
"                        o % X.%.%.%.9._.`.^.`.'.$X&X&X&X&X{.0.6.^.^.^.R.7.8.' H & $                                             ",
"                        o D _ } } @.%._.'._.%.4._..X.X'._.9.].^.[.W.R.R.7.8.K & e t 8 8 0 0                                     ",
"                        o % H ( ` [ #.%.6.1.X.X.6._._.4.%.%.1.E.T.T.8.^ <.+.! I B C C M p p                                     ",
"                            % F / { [ } O.O.{ X.%.q.%.o.) & .. .Q ! ! E  .;.1.A.F.F.N.:.&.B p 9                                 ",
"                            o % / [ X.@.X.[ ` { X.o.( / & * * u Y Y Y Q &.N.Y.).).Y.J.A.-.&.N p                                 ",
"                            o % / @.1.9.2.@.} ] / & % & * V W &.;.,.,.N.N.D.(.l.(.(.).!.A.,.&.B p 0                             ",
"                            o % J o.q._.4.@.' H & & * | *.-.-.,.A.A.F.F.G.C.h.j.z.x.Y.!.J.Z.:.V i 0                             ",
"                                % L $.4.#.' F D u ..:.1.K.H.J.K.A.A.A.G.U.h.i.t.j.k.Y.J./.K.;.V p 0                             ",
"                                o D X.@.' G & * V ;.,.Z.|.|.!.!.H.A.G.C.k.y.z z y.f.V.F.!.J.,.&.N p                             ",
"                                o D ' ' F & e i &.&.;.-.F.K.K.H.F.V.U.k.f.t.6 , z A =.,.J.!.D.-.&.B p 9                         ",
"                                o D H H % $ 4 p j B j &.:.M.B.B.Z.C.k.h.t.c 7 , 5 0 j :.H./.H.Z.;.V s 9                         ",
"                                    % %         2 1 1 4 p C p.s.s.s.a.u.c k z 8 , > q S F./.K.Z.:.V p q                         ",
"                                    o o         ; : , 5 z c A i.i.i.e.c z 0 m z 5 < , m D.|.J.D.-.&.N p                         ",
"                                                    z m c.c.A n n n n n M z e.c v , : p Z.}./.J.Z.-.&.B s q                     ",
"                                                    b m p.c.m b n A A A A i.a.u.c z 6 A D.}.}./.K.1.:.V p 0                     ",
"                                                    2 7 b b k r c a.f.h.h.h.h.h.i.t.y.g.V.J.|.|.K.Z.:.V p 0                     ",
"                                                    : , 7 k z c e.a.h.j.z.z.z.j.f.f.j.g.V.Z./.J.D.;.&.B p 9                     ",
"                                                : < w 7 q z c t.u.u.y.f.j.z.z.z.l.h.y.u.S v.K.K.=.N s p                         ",
"                                                : < q k q q c c e.c c t.y.f.f.h.h.f.a.i.A S Z.M.B 9 q q                         ",
"                                                , 7 r r , < w 5 5 5 5 5 v z c e.e.w.p.p.c.S S C M z 7 7                         ",
"                                                2 q z 0 w : : : - - - . . < 9 p b m p.v.v.c.M b M p 0 7                         ",
"                                                    7 7 5 , , ,             7 7 7 b c.M.M.v.S m n b q 2                         ",
"                                                    2 7 , 7 2 7             7 , 2 0 S c.p.S m n b r 7 2                         ",
"                                                                                    r k b k 0 9 9 7                             ",
"                                                                                    2 2 w 2 , w 2 5                             "
};
