/* XPM */
static char *_56ffdbe656b411df82bb296e1adf438rtfINeMI13fC1Kau[] = {
/* columns rows colors chars-per-pixel */
"64 64 217 2 ",
"   c None",
".  c #3E3E3E",
"X  c #725A1E",
"o  c #46443C",
"O  c #544F3C",
"+  c #59543E",
"@  c #695C3B",
"#  c #6C592A",
"$  c #7F6623",
"%  c #7A652C",
"&  c #766539",
"*  c #6F633C",
"=  c #3E3F41",
"-  c #3F4041",
";  c #434344",
":  c #4A4845",
">  c #4B4C4C",
",  c #474848",
"<  c #514E4A",
"1  c #51514D",
"2  c #59544F",
"3  c #5D5947",
"4  c #4D4F50",
"5  c #4E5456",
"6  c #545353",
"7  c #595654",
"8  c #5C5855",
"9  c #525B5D",
"0  c #5D5C5B",
"q  c #555758",
"w  c #4F504F",
"e  c #665B43",
"r  c #615F5C",
"t  c #645C55",
"y  c #766640",
"u  c #796B44",
"i  c #6B6156",
"p  c #64625D",
"a  c #6B645D",
"s  c #6C695D",
"d  c #7A6655",
"f  c #7E6956",
"g  c #7B695B",
"h  c #74675A",
"j  c #75735D",
"k  c #67644D",
"l  c #545A65",
"z  c #585C71",
"x  c #596466",
"c  c #5D6476",
"v  c #597275",
"b  c #5F7679",
"n  c #626263",
"m  c #6D6C64",
"M  c #646B6D",
"N  c #6C6C6B",
"B  c #716F67",
"V  c #757264",
"C  c #797668",
"Z  c #656A74",
"A  c #687979",
"S  c #777677",
"D  c #826A26",
"F  c #8C7329",
"G  c #8A732C",
"H  c #93792C",
"J  c #90772B",
"K  c #897439",
"L  c #927A34",
"P  c #816D3D",
"I  c #887649",
"U  c #826C57",
"Y  c #896E56",
"T  c #826C5A",
"R  c #896F59",
"E  c #8B7059",
"W  c #887656",
"Q  c #927D59",
"!  c #917A48",
"~  c #847562",
"^  c #897F77",
"/  c #9C822F",
"(  c #9E8432",
")  c #96833D",
"_  c #A48B35",
"`  c #A98E34",
"'  c #A38B39",
"]  c #AD953B",
"[  c #AB9237",
"{  c #B19A3E",
"}  c #998442",
"|  c #8D815C",
" . c #958459",
".. c #9F934F",
"X. c #AE9943",
"o. c #A99549",
"O. c #B19C48",
"+. c #AF9358",
"@. c #B7A54B",
"#. c #B7A756",
"$. c #BAAB51",
"%. c #898569",
"&. c #978965",
"*. c #8B8878",
"=. c #918D75",
"-. c #9A9678",
";. c #9A916C",
":. c #A69669",
">. c #A49977",
",. c #B4936B",
"<. c #B7A674",
"1. c #C1B45B",
"2. c #C3AD5D",
"3. c #C6BA66",
"4. c #C5A37A",
"5. c #C7BC74",
"6. c #CBA875",
"7. c #C19863",
"8. c #CDC57A",
"9. c #D3C47B",
"0. c #D0C16F",
"q. c #5E7E83",
"w. c #617E83",
"e. c #757683",
"r. c #807A81",
"t. c #5D898B",
"y. c #5F8D91",
"u. c #5E9798",
"i. c #648687",
"p. c #798786",
"a. c #649598",
"s. c #6D9090",
"d. c #7B84B6",
"f. c #66AAA9",
"g. c #68B1AE",
"h. c #67B9B6",
"j. c #72B9B3",
"k. c #71B0A9",
"l. c #74A29F",
"z. c #79C2B8",
"x. c #65C2BE",
"c. c #67C9C4",
"v. c #828282",
"b. c #8F8887",
"n. c #988681",
"m. c #9F8B81",
"M. c #978581",
"N. c #9E9983",
"B. c #879695",
"V. c #A69F84",
"C. c #9DA28D",
"Z. c #9CA792",
"A. c #8FA99A",
"S. c #A9A38B",
"D. c #A9A285",
"F. c #B2AB8D",
"G. c #BDAB83",
"H. c #ACA992",
"J. c #B5AE93",
"K. c #A7B69D",
"L. c #BBB496",
"P. c #BBB69B",
"I. c #BFB28A",
"U. c #888AA4",
"Y. c #A39FB8",
"T. c #89BEAE",
"R. c #98B8A6",
"E. c #BEBCA0",
"W. c #C8AB88",
"Q. c #D4AE84",
"!. c #C6B58D",
"~. c #D7B589",
"^. c #CCBB94",
"/. c #C4B99C",
"(. c #C7B99B",
"). c #D7BA95",
"_. c #C6BEA1",
"`. c #D3C989",
"'. c #D9C699",
"]. c #DBD597",
"[. c #D0C68B",
"{. c #E1C79B",
"}. c #E6D59B",
"|. c #CBC3A3",
" X c #C7C0A2",
".X c #DACBA4",
"XX c #DED2A7",
"oX c #E4CAA6",
"OX c #E7D7AA",
"+X c #EDDBB3",
"@X c #EDD3B0",
"#X c #F2DDB6",
"$X c #F4DFB8",
"%X c #EEE2B3",
"&X c #F4E3BA",
"*X c #F5E7B9",
"=X c #EFE0A9",
"-X c #8893D7",
";X c #949EDB",
":X c #A8ACD8",
">X c #B5B3D8",
",X c #9CA6E7",
"<X c #B2B7E5",
"1X c #A5B4FF",
"2X c #B3BAEF",
"3X c #C5BFD7",
"4X c #BAC2FD",
"5X c #CBC3D7",
"6X c #C6C0D7",
"7X c #FCEDC3",
"8X c #F7E9C0",
"9X c #FEF1C6",
"0X c #FFF3C9",
"qX c #C4CBFF",
"wX c #C9CFFF",
"eX c #D8DAFF",
"rX c #E2E2FF",
/* pixels */
"                                                                                                                                ",
"                                                                                                                                ",
"                                                                                                                                ",
"                                                                                                                                ",
"                                                            . . . . . = . = . . . . . .                                         ",
"                                                            ; ; ; ; , , : : , , ; - ; ;                                         ",
"                                                    o . . ; , , , > 6 8 8 7 7 6 4 : > : ; - . .                                 ",
"                                                    ; ; ; : w 6 6 7 t n p n p 0 7 6 6 w : ; ; ;                                 ",
"                                                = = , > > 4 7 0 0 0 r r a n p p r r r 7 > > > , ; .                             ",
"                                                = , > 4 6 7 r n m a a a a r r h a a n r 7 6 4 > , ;                             ",
"                                            o ; : < 4 6 7 0 0 a g T T T T T T T T g a r r 0 6 < > , ; .                         ",
"                                            ; ; > 6 6 7 r n a h T E E E E E E E R T h a n 0 7 4 w > ; .                         ",
"                                            = = > 6 7 r r a T T E E R E E E E E R R R m a t r 0 6 > ; .                         ",
"                                            . = , 6 r r a d T R E E E E E E R E E R R R h a n 0 6 , - .                         ",
"                                            . . , 6 t a Y Y E E E E E R E R R E R R E Y T T a 7 6 , o .                         ",
"                                            z z z z n a Y E Y Y E R R Y Y R Y Y R R R Y R T a n c z z l                         ",
"                                . . . . . l e.-X-XU.e.Z T R Q E E Q Y Q Y Q Y E Y Y Y Y Y Y t Z U.-X-Xe.z . . . . .             ",
"                                ; , ; ; . z -X1X1X,Xe.r.r.r.r.r.^ m.^ m.r.r.>.m.m.m.m.^ m.r.r.U.,X1X1X-Xz . . . ; ;             ",
"                            . ; , > > : , c -X1X2X2X<X>X3X>X>X3X5X5X5X5X5X5X5X5X3X3X>X>X>X>X:X<X2X4X1X-Xc : , , : , = .         ",
"                            ; , > 6 6 6 6 c d.;X:X<X4XqXwXwXqXwXrXrXrXrXrXrXrXrXrXrXeXqXqXqXqXqX2X,X;Xd.c 1 6 6 7 1 , ;         ",
"                        . ; , 1 7 0 0 r 0 n S e.e.r.2XqXqXwXeXrXrXrXrXrXrXrXrXrXrXrXrXeXwXqXqX<XU.e.e.S z t r r r 8 w : ; -     ",
"                        . ; , > 7 r p p m t a r r ^ Y.2X>X>X3X3X5X5X5X5X3X3X3X3X3X3X3X3X>X>X>XY.^ i t i h r n p r 8 w , ; .     ",
"                            ; , 4 7 r a m T T U U T ^ m.r.m.-.m.,.^ r.W.,.m.r.>.m.m.m.m.n.n.n.^ ~ U U T T g a r q w , ;         ",
"                            . ; , 4 6 t d U d U T Y Y Y Y E Y Y E Y Y Y E E E Y Y Y Y Y Y Y R T T g g g U h t 6 w , ; .         ",
"                                ; ; ; < 2 t 7 t a a a h Y Y Y Y E E Y R Y Y R Y Y Y Y Y Y R h t a a t 7 t 7 < : ; ;             ",
"                                o o O < : , , > 6 6 q t i d U d U T d U d d d d d d d d d i t 7 6 6 , , , , . . . .             ",
"                                # X F P < . - ; ; ; , , : < 2 7 2 2 2 < 2 < < 2 2 7 2 2 : : ; ; , ; o = = .                     ",
"                                X F L L * 3 3 + 3 3 + O o O < 2 2 i d d B S ~ B B V V B i i a m s a a t < :                     ",
"                                X D ( { O...) L ....) K * @ e u K } o.<.).|._.(.(.(.(.(.(.^.|.|.|.|.(.D.T e                     ",
"                                X D H { @.2.{ { 1.$.X.}  .&. . .} ' @.0.@X7X&X$X$X$X$X#X#X&X*X9X9X7X#X). .&                     ",
"                                X D H [ ] [ [ { 1.$.}  .!.oX'.G. .L ' 2.}.&X$X$X$X&X$X$X#X$X&X&X&X#XoXW.Q u                     ",
"                                X D H ( ` ` ` ] @.X.I &.OX7X#X).:. .L o.'.$X#XoX^.W.!.^..XOX@X#X#X#X@XW.Q y                     ",
"                                    $ F ( ` ` [ { ) P &.@X$X).Q.).<.K } '.*X+X!.| * & W <.|.OX%X8X8X+X^.&.y                     ",
"                                    X $ H ( ` ` ` ( P &.oX$XQ.Q.OX.X+.:.OX9X%X^.%.y * u  .>.G.'.&X7X$X^. .y                     ",
"                                        D F ( ` ` ( P &.).@XQ.Q.@X*XOXOX*X7X8X%X.X[.I.>.u @ * &.XX7X@XW.Q &                     ",
"                                        X $ H / _ ' K  .W.^.Q.~.+X7X9X0X0X9X9X0X0X9X%X^. .y y &..X&X{.<.Q &                     ",
"                                            D F ( _ _ ) Q ,.W.{.#X*X9X0X9X9X7X0X0X9X7X+X X[.|.].XX].8.#.K X                     ",
"                                            X $ H _ _ ' ! Q W.).oXOX=X=X8X0X9X0X0X7X7X8X+X%X*X%X].8.0.O.G X                     ",
"                                                D F ( ] +.4.~.oXoX'.9.].*X0X0X9X0X7X*X#XoXoXOX].8.3.1.@.D X                     ",
"                                                # % H } 7.Q.~.).{.~.5.8.}.%X*X*X*X+X}.'.'.'.`.8.1.$.1.X.D X                     ",
"                                        8 8 q 0 3 e % L +.6.6.Q.).).).~.8.`.].=XXX`.#.#.`.`.8.1.@.] { ' D X                     ",
"                                        p m m B V j u ! ,.,.,.,.4.W.W.4.#.@.<.8.`.8.O.@.<.5.1.@.[ _ / H $ X                     ",
"                                    8 p V %.-.N.-.-.-.:.;.&.Y W W Q  .! G ) X.$.0.#.X.] X.O.X.] ` ( F $                         ",
"                                    m C =.-.Z.K.K.R.K.Z.-.&.| W W I f u & % J _ X.X.] [ ] X.O.o.] / $ X                         ",
"                                q m *.V.J.K.T.z.z.z.z.T.H.D.F.F.>.-.%.W | u $ $ % / ( X.@.$.5.3.O./ $ X                         ",
"                                m ^ S.P.P.R.z.c.c.x.g.f.R.K.P./.P.F.-.-.-.;.| % % % G _ @.0.`.5.o.H $ X                         ",
"                            q m *.S.P.P.A.l.x.c.x.h.t.t.f.T.K.L././.P.L.P.F.>.-.| u % / _ @.3.$.L $                             ",
"                            p C D.J.J.C.s.a.f.h.g.u.x x u.j.R.K.E. X X X XP.J.>.=.| & % / ) @.X.G X                             ",
"                        8 p j =.J.J.*.A t.y.u.i.t.x 4 5 t.f.k.T.K.L.L.L.L.F.-.;.=.~ i e % F _ ' $ X                             ",
"                        p m %.>./.H.N 9 v q.t.v q > > 5 v i.f.k.A.C.C.C.N.-.C j j j p 3 # D H H $ X                             ",
"                    8 p V %.-.J. XH.p , l x x l > > q x x v y.a.s.s.s.p.A p 6 1 < <         D $                                 ",
"                    p V %.-.F.L.H.=.8 ; > 5 5 w , > x M l x A i.w.w.t.b M r 6 , ; o         X X                                 ",
"                0 p V %.-.F.E.F.C 7 : ; ; ; , , 4 l b A x n M M M M M A p.S N p                                                 ",
"                0 s C ;.D.P. XS.0 . - ; , , , > 9 b y.u.i.w.A A A A b S v.v.B M                                                 ",
"                0 p C ;.D.L. XS.t . = , 4 5 5 l v i.g.h.j.g.g.f.f.f.i.A M x 6 w                                                 ",
"                0 p V %.D.L. XH.M ; = ; 4 q 9 x t.a.g.h.h.h.c.c.x.x.f.y.v 9 > ,                                                 ",
"                    p C >.P. XH.B 6 , ; , > 5 x q.a.a.a.a.f.x.c.c.x.h.g.y.v 9 4                                                 ",
"                    9 V *.H.P.H.C 6 , ; ; ; 4 l v q.w.i.w.y.k.j.z.j.j.f.a.A Z n                                                 ",
"                        m *.D.D.V q 6 > ; ; ; > 5 x M M Z A p.B.l.p.i.A A e.p.S r 4                                             ",
"                        q N *.=.B 6 6 > , ; , , > 6 l r r m S S ^ S B N S v.b.v.r w                                             ",
"                            m m         w > > > w w 6 q q 7 0 n N N S S v.b.B.*.p w                                             ",
"                            8 0         w 6 w 6 w w w w w w 4 6 r n M N v.p.r.S l 4                                             ",
"                                                                6 q 8 0 0 n n 0                                                 ",
"                                                                w w 4 w w > > 6                                                 "
};
