/* XPM */
static char *_17b0a0fabd146c6e286f724bba0cdb4IsbtOuL1DTa6duzP[] = {
/* columns rows colors chars-per-pixel */
"64 64 129 2 ",
"   c None",
".  c #4D2712",
"X  c #4E2812",
"o  c #522B14",
"O  c #532F18",
"+  c #5A3117",
"@  c #56321A",
"#  c #5A351D",
"$  c #5E391E",
"%  c #603A1F",
"&  c #5B3720",
"*  c #5E3A21",
"=  c #623D23",
"-  c #644126",
";  c #664529",
":  c #69462A",
">  c #67482B",
",  c #6A4A2D",
"<  c #6C4E31",
"1  c #644F3C",
"2  c #704E31",
"3  c #6E5234",
"4  c #66523F",
"5  c #6C563E",
"6  c #715537",
"7  c #765837",
"8  c #735738",
"9  c #755A3A",
"0  c #795E3E",
"q  c #7A603F",
"w  c #675240",
"e  c #695642",
"r  c #6C5A46",
"t  c #6D5C48",
"y  c #715C45",
"u  c #7A5F40",
"i  c #715E48",
"p  c #7D6241",
"a  c #74624C",
"s  c #756551",
"d  c #786751",
"f  c #7B6A55",
"g  c #7F6E59",
"h  c #7F6F5A",
"j  c #7D6D5A",
"k  c #7F705B",
"l  c #7F7262",
"z  c #806544",
"x  c #806445",
"c  c #806545",
"v  c #816645",
"b  c #806546",
"n  c #826746",
"m  c #836847",
"M  c #826947",
"N  c #836947",
"B  c #826848",
"V  c #836848",
"C  c #83694A",
"Z  c #84694A",
"A  c #846A4A",
"S  c #866B4A",
"D  c #866B4B",
"F  c #876B4B",
"G  c #876C4B",
"H  c #846B4D",
"J  c #876E4D",
"K  c #856C4E",
"L  c #866C4E",
"P  c #866D4F",
"I  c #876E4F",
"U  c #876F4F",
"Y  c #846B4A",
"T  c #886C4C",
"R  c #886E4D",
"E  c #886E4E",
"W  c #886F4E",
"Q  c #896F4F",
"!  c #8A714E",
"~  c #8A704F",
"^  c #8A714F",
"/  c #8B714F",
"(  c #866E50",
")  c #876E50",
"_  c #886F51",
"`  c #8B7353",
"'  c #8D7453",
"]  c #8E7653",
"[  c #8A7254",
"{  c #8B7254",
"}  c #8B7455",
"|  c #8C7455",
" . c #8D7455",
".. c #8D7556",
"X. c #8E7556",
"o. c #8E7656",
"O. c #81705B",
"+. c #81715B",
"@. c #81715C",
"#. c #81715D",
"$. c #907756",
"%. c #907857",
"&. c #917858",
"*. c #917958",
"=. c #937B5C",
"-. c #937C5C",
";. c #947C5C",
":. c #967D5F",
">. c #947E5E",
",. c #957E5E",
"<. c #957E5F",
"1. c #857561",
"2. c #867661",
"3. c #847562",
"4. c #867966",
"5. c #897B67",
"6. c #8E7F6A",
"7. c #8C7F6C",
"8. c #977F61",
"9. c #8E806C",
"0. c #988162",
"q. c #998263",
"w. c #9A8364",
"e. c #9B8466",
"r. c #9B8566",
"t. c #9B8567",
"y. c #928371",
"u. c #938472",
"i. c #948675",
/* pixels */
"                                                                                                                                ",
"                                                                                                                                ",
"                                                                                                                                ",
"                                                                                                                                ",
"                                                                                                                                ",
"                                                                                                                                ",
"                                                                                                                                ",
"                                                                                                                                ",
"                                                                                                                                ",
"                                                      , , , 2 2 = 2 2 6 2 2                                                     ",
"                                              : , : = / / / T T + F F F S S % = - -                                             ",
"                                          2 : &.&.&.% / / / F F + F F F S S + 0 9 0 - -                                         ",
"                                      = % ' ' $.&.&.% w.w.w.;.;.% ;.;.0.;.] + q 0 9 u 9 # *                                     ",
"                                    : Z % R e.e.r.r.% 7 9 7 7 n % 0 0 0 0 p % ] { $.} 7 = 2 *                                   ",
"                                  , R T % 8.7 Q z z % z z 9 7 x % 0 0 p p p = : : z u { = 3 3 *                                 ",
"                                : Z R :.= 6 7 R z v % p 0 x 9 u - 0 0 p p p : : Z p u p - _ 6 6 #                               ",
"                                : D ;.9 = 7 R n z z - p p p x x : q p p p q , Z p u u u - p L 3 #                               ",
"                              - u { 9 0 = 7 R z v z : p p p 0 x : q p p p q , q p u p p , q q L 6 #                             ",
"                              ; { 9 0 0 - Z z z z z , 0 0 x 0 z : q p p p p , p u p p 0 , p q q H &                             ",
"                            - p { 9 9 9 : p z z v z , z p 0 0 n : q p p p p , p p 0 u p < q q q ) < #                           ",
"                            - ) 9 9 9 9 , p z z z x , 0 0 p 0 x : z p p z q , q u p p 0 < q q 0 0 { @                           ",
"                            - L 9 9 9 9 , z x x x x , 0 p u p x : v p z p p < q p q y p 3 p 0 q 0 { @                           ",
"                            $ 7 9 9 7 7 , x p p = n , u u u u x : N z p p p , p - p q q , q q 0 0 0 X                           ",
"                            # $ $ % = = = = - = u.: , u u u 0 z : N q z p p , = y.= = * = * $ # # # o                           ",
"                            @ f f #.O.#.1.1.1.2.O.9.- q u u u x : N p p p z % r.f #.2.+.g g g k f f o                           ",
"                            @ y y i a a d ( f f f f 6.- u 0 0 x : N p p z % u.J f f d a a a i p y r o                           ",
"                            @ y u a a a d d f f f f + 0 u u 0 a : N z p q q + d d d s a a a a a y 5 o                           ",
"                            + o o o o + O o O O f + 2 0 0 u 0 p : N p p M q , o d O o X X o X X o o o                           ",
"                            + - = ; ; > & < , , + < 6 9 0 u u p > N q z q q , , o , > > , > > > : > o                           ",
"                            O 7 7 7 9 8 & u u u , 2 < 0 9 u u p > G z q q M , q > p p p 3 9 7 8 8 8 o                           ",
"                            O 6 7 9 8 9 = u u u u < 3 0 u u 9 p : G q z q q , q 0 0 0 q 3 8 8 8 8 8 o                           ",
"                            O 6 8 8 7 8 , p u u 0 , < 0 0 0 u p > G q M q q < p q 0 q q 3 8 8 8 8 8 o                           ",
"                            o 8 8 7 8 8 > p 0 9 0 > < q 0 8 0 p > S q p q p , p 0 q 0 q < 5 6 8 6 5 X                           ",
"                            o 8 8 8 8 8 > p 9 0 9 0 < 9 0 0 0 p > S p q p q 3 p 0 0 0 9 < 6 6 6 6 8 o                           ",
"                            o 8 8 8 8 8 , p 9 0 9 9 < 9 9 9 0 p ; J q q p q < p 9 0 0 9 < 6 6 6 8 8 o                           ",
"                            o 8 8 8 8 8 > p 9 9 9 9 3 5 0 9 # * $ % $ q q q 3 p 0 9 0 0 < 6 6 6 3 3 o                           ",
"                            o 8 8 8 3 8 > p 8 9 7 7 3 8 9 $ 9.9.6.6.5.$ 0 q 3 q 0 0 0 0 , 8 6 5 3 6 o                           ",
"                            o 8 8 8 8 8 < u 9 8 8 8 < 9 9 $ a a a a a # 0 q 3 q 9 0 8 0 > 3 3 3 3 3 o                           ",
"                            o 3 8 8 8 8 < p 8 8 8 8 < 9 9 # a a o a a $ 8 p < q 9 9 9 9 ; 3 3 3 3 5 o                           ",
"                            X 8 3 3 8 8 , 0 8 8 8 8 < 8 9 X i i o i t o 9 7 , p 9 7 0 9 ; 3 < 3 3 3 X                           ",
"                            X 8 8 3 3 8 < u 5 8 6 8 < 8 8 o 5 5 5 5 5 X 8 9 , q 9 9 0 9 > 3 3 3 3 3 o                           ",
"                            X 8 8 8 8 8 , p 3 8 * 6 < 6 8 > o X X o o : 8 9 3 q * 9 9 9 - 3 < 3 < 3 X                           ",
"                            X # @ @ # # $ * $ * 9.$ < 8 9 8 , , # > ; 7 8 8 3 * 7.* * $ * # # # @ @ X                           ",
"                            X d d g g f #.1.#.1.s 9.& 8 8 8 8 8 - 0 8 8 8 9 * 9.s #.k f f f d f d d X                           ",
"                            X 5 5 r i i a s d d d d 9.* 8 8 6 9 - 8 8 8 0 * 9.s a s a t t i r a e e X                           ",
"                            X 5 5 a r a s a a a d d X 6 6 8 8 8 - 3 8 8 8 3 X s a a a t r i i r 5 5 X                           ",
"                            X X X o X X o X o o s X - 8 6 6 8 6 - 8 8 8 8 6 - X i X X X o X X X o X X                           ",
"                            X = = - ; - # > , , X > - 6 6 6 6 8 - 8 3 3 6 3 - > X > ; ; = - - - = = X                           ",
"                            X 3 3 3 < 3 # 3 3 6 > 6 - 6 6 6 6 6 * 8 6 3 3 3 - 9 ; 0 9 9 * < < , < < .                           ",
"                            X 3 < < 3 3 * 3 5 3 3 6 * 6 6 3 3 8 # 3 3 8 3 5 * 7 9 9 9 9 * 1 , < < < X                           ",
"                            X 3 3 3 3 3 * 5 3 3 6 6 - 6 5 3 5 4 O 3 3 3 3 3 * r 9 9 9 9 * 3 < < < < X                           ",
"                            X o & & & & * & $ & & # @ O @ @ X . o O X @ # # & & # # @ & @ @ O O . X X                           ",
"                            X a a a a s s s d s s f s s f f j l . l l k j s f j s s s s s s s s s s X                           ",
"                            X 3.4.4.4.4.5.4.4.4.l 9.9.9.9.9.i.i.X i.i.9.7.7.7.l 4.4.4.4.4.4.3.3.3.3.X                           ",
"                            X 4 4 w w w e w w e t e t t t t t s . s t t t t t r r r e e e 1 4 1 1 1 .                           ",
"                            X 4 4 w 4 w w w e r t t e t t t t s . s t t t r t t r r e e e 1 1 1 1 1 .                           ",
"                            X 4 1 w w e e e e e r e r r t r t s . s t t t t t t e e e e e e e 1 1 1 X                           ",
"                            X 1 w 1 w e e e e r e r r r t t t d . s i t t t t t r e r e e w e e 1 1 X                           ",
"                            X . X X X X . X X X . X X X . . X X . X X X X X X X X X X X . . . . . . X                           ",
"                                                                                                                                ",
"                                                                                                                                ",
"                                                                                                                                ",
"                                                                                                                                ",
"                                                                                                                                "
};
