/* XPM */
static char *_72b5c1b7ea1497fdae3965845be7c5aG0tBON3cTya9301T[] = {
/* columns rows colors chars-per-pixel */
"64 64 100 2 ",
"   c None",
".  c #4F2913",
"X  c #4F311E",
"o  c #53321E",
"O  c #56321C",
"+  c #4F3625",
"@  c #543523",
"#  c #543624",
"$  c #553726",
"%  c #553827",
"&  c #5A3B27",
"*  c #5E3B25",
"=  c #563B2A",
"-  c #563D2C",
";  c #573C2D",
":  c #573D2D",
">  c #573E2E",
",  c #593D2A",
"<  c #573F30",
"1  c #583F30",
"2  c #5B4231",
"3  c #584132",
"4  c #594133",
"5  c #5E4532",
"6  c #5A4335",
"7  c #5A4336",
"8  c #5A4436",
"9  c #5A4437",
"0  c #5B4639",
"q  c #5A4739",
"w  c #5B473A",
"e  c #5B483B",
"r  c #5B493C",
"t  c #5C493D",
"y  c #5C4B3E",
"u  c #5C4B3F",
"i  c #624937",
"p  c #5C4B40",
"a  c #5C4D41",
"s  c #5D4D41",
"d  c #5D4D42",
"f  c #5D4E42",
"g  c #5D4E43",
"h  c #5D4F43",
"j  c #5E4F44",
"k  c #5E4F45",
"l  c #5A5046",
"z  c #5D5044",
"x  c #5C5147",
"c  c #5E5146",
"v  c #5C5247",
"b  c #5D5247",
"n  c #5D5248",
"m  c #5F5349",
"M  c #655444",
"N  c #665444",
"B  c #675544",
"V  c #615851",
"C  c #655C55",
"Z  c #655D56",
"A  c #665F58",
"S  c #666057",
"D  c #676159",
"F  c #676259",
"G  c #68625A",
"H  c #68635A",
"J  c #69635B",
"K  c #69645B",
"L  c #69645C",
"P  c #6A645C",
"I  c #6A655C",
"U  c #6B655D",
"Y  c #6A665C",
"T  c #6B665D",
"R  c #6B675D",
"E  c #6B665E",
"W  c #6C665E",
"Q  c #6C675E",
"!  c #6C675F",
"~  c #6C685E",
"^  c #6C685F",
"/  c #6D685F",
"(  c #6D695F",
")  c #6D6860",
"_  c #6D6960",
"`  c #6E6A61",
"'  c #6F6A62",
"]  c #6F6B62",
"[  c #706B62",
"{  c #706B63",
"}  c #706C63",
"|  c #746F67",
" . c #767469",
".. c #868579",
"X. c #86847B",
"o. c #88877B",
"O. c #918F88",
"+. c #929088",
"@. c #94928B",
"#. c #99978F",
/* pixels */
"& & & & & & & & & & & & & & & &   & & & & & & & & & & & * & & & & & & & & & & & * & & & & & & &   & & & & & & & & & & & & & & & ",
"............................o...i ..........................................................o...5 ..............................",
"..............o.................i ............................o.................................i ............o.................",
"..............o.................B ....o.......................o.................................B ............o.................",
"O.O.O.O.O.O.O.O.+.+.+.+.+.#.#.#.B +.#.#.#.@.+.+.+.+.+.+.@.@.+.+.O.+.O.O.+.+.+.+.+.+.+.+.+.#.#.#.B @.#.#.#.+.+.+.@.@.+.+.+.+.+.@.",
"( ( ( ( / ! / / ! ( ( / ( ( ( ! 2 ( / / / / / ! ( _ Q Q ( ( ~ ~ ( / / / ! ( _ L / / ! ( / ( ( Q 2 ! ! ( ( ( ( ! / / / ~ ( ( ( _ ",
"( ! ( ! / / / / ! ! ( ! ! ( ! / 2 ! ( ~ ( ( Q Q ( ( ! Q ( ! Q Q ( ( / / ! ( ! ( ( ! ( ( / / Q Q 2 ! ( ! ( Q ( ( / / Q Q Q ! ! ! ",
"! ( ! ( / / / / ~ ~ ~ Q ( ( ! ! 2 ( Q ~ ! ( Q Q ! ! ! ! ! ! Q Q / ! / ! ( ! ( ! ~ ~ ~ ~ ( ( Q Q 2 ( ! ( ! ! Q ~ ( ( Q Q Q ! ! ! ",
"~ ~ ~ ~ Q Q Q Q ~ ~ Q Q Q Q Q Q 2 ! ! Q Q Q Q Q Q ! Q Q ! ! ! K / ( ! ( Q Q ~ ~ ~ ~ ~ Q Q Q Q Q > Q Q Q Q Q Q Q ! ! Q Q Q Q J Q ",
"Q Q Q Q Q Q Q Q Q Q Q Q K Q K Q > ! Q Q Q Q Q Q Q Q K Q K ( K ( ! ! Q ! Q Q Q Q Q Q Q Q Q Q Q Q 2 Q Q Q Q Q J Q Q Q J Q Q Q Q Q ",
"Q Q Q Q Q K Q Q Q Q Q Q Q K ~ Q 2 ! ! ! J Q Q Q K K K Q K ~ L R Q Q Q Q J Q Q J Q Q Q K ! Q Q ! 2 Q Q J Q J J ! K H Q Q K Q H K ",
"K K K K Q K H Q Q H H Q Q Q Q K , U H L J J J J Q K K Q K K L L K H Q H Q H Q Q K K Q K J Q J J & Q Q H Q J Q J K Q H J K K K Q ",
"K Q K K Q Q H Q J Q Q J H Q H Q o L L H Q J J J H K K K L K K K K Q Q J Q H Q J K K Q J Q H J Q O H K K J J Q H K K K K K K K K ",
"K K Q K J J H H H J H J H H H H o L H L H J J H H H K K L L K K H H J H J H J J K K J J Q H J H o H H H J J H H K K K K K K K K ",
"H H H H H J J H J J J J J H H H O G H H H H H H H H H H G G L L H H H H J H H H K H H H H H H H O H H H H H H H H H H H H H K K ",
"H H H H A H H H H H H H H H H H O H H A H H H H H H H H G G F G H H H H H H H H H H H H H H H H @ H H H H A H H H H H H H H H H ",
"A A F F F F F A F F F G F A F F @ A F F F F F A F F A A G F G F D D D D D D D D D D D D D D D D o A A H A F F F A G F F A A G F ",
"A H F F F A F F F F F A F G F F . A F F F A F F A F G F G A A F D D D D D D D D D D D D D D D D . A H A F F A F A F F G G F G A ",
". . . . . . . . . . . . . . . . x . . . . . . . . . . . . . . . . . . . . . . . . . . . . . . . l . . . . . . . . . . . . . . . ",
"z c c v x x x c v v v v x x x x x x x x x x x X l l l l l l l l l l l l l l l l l l l l l l l l l l k k l l l X x x x x n n n x ",
"v v v v x v v v v v v v v v v v v v v v x v v + l l l l l l l l l l l l l l l l l l l l l l l l l l l l l l l X v x M v n x n n ",
"v v v v x v v v v v v v v v v v v v v v x x v + l l l l l l l l l l l l l l l l l l l l l l l l l l l l l l l + v x n v n c c n ",
"v v v v v v v v v v v v v v v v v v v v v v v + l l l l l l l l l l l l l l l l l l l l l l l k l l l l l l l + v v v v v v x n ",
"v v v v v v v v v v v v v v x x v v v v v v v + l l l l l l l l l l l l l l l l l l l l l l l v l l l l l l l + v v v v v v n n ",
"v x x v c n v v v n v v x x x x v v v v x x x + x l l l l l l l l l l l l l l l k l l l l l x x l l l x l l l + x x n c n c n c ",
"F F F F A H F F F A F F A G G G S F A F G A F 3 V V V V V V V V V V V V V V V V V V V V V V V V V V V V V V V 3 F F A H F F F F ",
"F F F F H A A H A H A F A G A H G G F F F F F @ V V V V V V V V V V V V V V V V V V V V V V V V V V V V V V V @ F A F H G G A F ",
"k c c c c s s s c c c n m m M n m M n < < - = + % % % 3 3 9 7 9 3 q 9 9 q V V V V 7 n n n n n n n n n 3 3 - = + = < n n m M n n ",
") ) ) ) ! ! s ! ) ) ! ! ! ! ! ! ) ) ) ) ) ) ) ) ) ) ) ) ) ) ) ' ] ] ] ' ' 3 V V 3 ' ' ' ) ) ) ) ) ) ) ) ) ) ) ) ) ) ) ) ) ) ) ) ",
"F F H A A H p H H A H A H A H A A A D D A A D D F A F G A A A F G G G A F ) 3 3 _ F G G A F A A F F F A D D A A A D A D A G A A ",
"A A F H H A s A A H A H A H A H G D D D D D D D F F A A A A F G G F G F A G 3 ' A G F G F A G F A F A F D D D D D D D D D D D D ",
"F F F A A H s H H A H A H A H A D D D D D D D D A F G F F F F A A F A F G G < F F G A A F F A F G F A F D D D D D D D D D D D D ",
"G A A F A F k A H A H A F A F F D D D D D D D D H A H A H A H A G F A G F F < G F A G G F A G F A A G F G F A A G F A G F F A G ",
"F F G G G F p G A H A H A L A F D D D D D D D D A H A H A H A H G A F G A G < G G A F A F G A F G F G A A F G F G A F G A G A F ",
"A G F A F A < G H A H A H A F F D D D D D D D D H A H A H A H A F F A A F G 3 G G F A F A A G G F G F A A G F F F F A A G A G F ",
"A F G A F G < A A H A H A H F F D D D D D D D D A H A H A H A H A G G F A A < G A F G G G F F A A A F G F F F F A G G F F F G A ",
"t e e ; < + @ % ; M m m x n n n x n m m 9 e e p u e q M n n n n e e e < < @ @ = ; M n m c V n n m m n n e t t p e e 0 n n n n V ",
"L L L L D ) G G L L G ) L L L L ) ) ) ) ) ) ) p ) ! ) ) ) ) ) ) L L L L G G L G L L L L K L L L ) ) ) ) ) L R p ) ! ) ! ) ) ! U ",
"A A A A A A A A A A A A A A A A A A D A A A Z p A A A A A A A A A A A A A A A A A A A A A A A A A A A A F A A t A A A A A A A A ",
"A A A A A A A A A A A A A A A A A A A A A A A p A A A A A A A A A A A A A A A A A A A A A A A A A A A A A A A t A A A A A A A A ",
"A A A A A A A A A A A A A A A A A A A A A A A k V F A A A A A A A A A A A A A A A A A A A A A A A A A A A A A k Z A A A A A A A ",
"A A A A A A A A A A A A A A A A A A A A A A A k A A A A A A A A A A A A A A A A A A A A A A A A A A A A A A A k Z A A A A A A A ",
"A A A A A A A A A A A D A A A A A A A A A A A k A A A A A A A A A A A A A A A A A A A A A A A A A A A A A A A k A A A A A A A A ",
"A A A A A A A A A A A Z A A A A A A A A A A A @ A A A A A A A A A A A A A A A A A A A A A A A A A A A A A A A @ A A A A A A A A ",
"A F A A A A A A A A A Z A D A D A A A A A A A @ A A A F A F A A A A A Z A A Z F A A F A A A A A A A A A A A A @ A F A A A A A A ",
"n n n t p t t t k k k v k p k p p p k p @ @ @ @ @ @ p p p p p s n n n t p e u u s c s c k s s k s k s p @ @ @ @ @ @ p p p s p s ",
") ) L ) ) ) u  .| | | ] ]  .| |  .|  .| | | | | | | | |  .| | | | | | | | | p ! ( ! ! ! L ) ) L ) L ) ) ) L ) ) ) L ) ) _ L ) ) ",
"A A A A A F t L ) ) ) ) ) ) ) L ) ) L ) ) ) L ) ) L ) ) ) L ! ! ) ) ) ) ) L u A A A A A F A A A A A A F A A A A A A A A A A A A ",
"A A A A A A u ! ! ! ! ! ! ! ! ! ) ) L ) L ) ) ) L ) L ) ! ! ! ! ) L ) L ) L p A A A A A A A A A A A A A A A A A A A A A A A A A ",
"A A A A A A c ! ! ! ! ! ! ! ! ! ) L ) ) ) ) ) L ) ) ) ) ! ! ! ! ) ) ) ) ) ) c A A A A A A A A A A A A A A A A A A A A A A A A A ",
"A A A A A A n _ ! ! ! ! ! ! ! ! ) ) ) ) L ) L ) ) ) L ) ! ! ! ! ) L ) ) ) L n A A A A A A A A A A A A A A A A A A A A A A A A A ",
"A A A A A A 7 L ! ! ! ! ! ! ! ! ) L ) L ) ) ) ) ) L ) ) ! ! ! ! ) ) L ) ) ) 3 A A A A A A A A A A A A A A A A A A A A A A A A A ",
"A A A A A A ; ) ! ! ! ! ! ! ! ! ) ) L ) L ) L ) L ) ! ! ! ! ! ! ) ) ) L L ) ; A A A A A A A A A A A A A A A A A A A A A A A A A ",
"A A A A A A ; ) ! ! ! ! ! ! ! ! ) ) ) ) ) ) ) ) ) ) _ L ! ! ! ! L ) ) ) ) ) ; F A A A A A A A A A A A A A A A A A A A A A A A A ",
"O O O O O O O O O O O O O O O O L O O O O O O O o O O O O O O O O O O O O O O O O O O O O O O O A O O O O O O O O O O O O O O O ",
" . . . . . . . . . . . . . . . .*  . . . . . . . . . . . . . . . . . . . . . . . . . . . . . . .*  . . . . . . . . . . . . . . .",
" . . . . . . . . . . . . . . . .M  . . . . . . . . . . . . . . . . . . . . . . . . . . . . . . .M  . . . . . . . . . . . . . . .",
" . . . . . . . . . . . . . . . .M  . . . . . . . . . . . . . . . . . . . . . . . . . . . . . . .M  . . . . . . . . . . . . . . .",
" . . . . . . . . . . . . . . . .M  . . . . . . . . . . . . . . . . . . . . . . . . . . . . . . .M  . . . . . . . . . . . . . . .",
"X.X.X.X.X.X.X...X.X.X.X.X.X.X.X.M X.X...X.X.X.X.X.X.X.X.X.X.X...X.X.X.X.X.X.X.X.X.X.X...X.X.X.X.M X.X.X.X.X.X...X.X.X.X.X.X.X.X.",
"F S S S S S S S S S S S Z S S S M S S S S S S S F Z S S S S S S S S S S F S S S S S S S S S S S M S S S S S S S S S S S F S S S ",
"Z S S S S S S S S S S S S S S S M S S S S S S S Z F S S S S S S S S S S Z S S S S S S S S S S S M A S S S S S S S S S S Z F S S ",
"S S S S S S S S S S S S S S S S . S S S S S S S S S S S S S S S S S S S S S S S S S S S S S S S . S S S S S S S S S S S S S S S ",
". . . . . . . . . . . . . . . . . . . . . . . . . . . . . . . . . . . . . . . . . . . . . . . . . . . . . . . . . . . . . . . . "
};
