/* XPM */
static char *d13b7b18096d4462f3bf94c3eb26c9e5BWE54q7Q0hIq0YQa[] = {
/* columns rows colors chars-per-pixel */
"64 64 193 2 ",
"   c None",
".  c #3E3E3E",
"X  c #40403E",
"o  c #4D4737",
"O  c #544F3C",
"+  c #58523D",
"@  c #685629",
"#  c #735E28",
"$  c #7D6524",
"%  c #76632D",
"&  c #786838",
"*  c #3E3F42",
"=  c #3E4043",
"-  c #434343",
";  c #494746",
":  c #4A4946",
">  c #4A4A4B",
",  c #474848",
"<  c #504E4C",
"1  c #534F40",
"2  c #5E5B45",
"3  c #50504F",
"4  c #58534F",
"5  c #5D594D",
"6  c #4A5354",
"7  c #475152",
"8  c #545353",
"9  c #5A5652",
"0  c #5C5955",
"q  c #5C5B5A",
"w  c #565959",
"e  c #625D46",
"r  c #635C54",
"t  c #615F5D",
"y  c #6E5F53",
"u  c #766541",
"i  c #786742",
"p  c #7C6942",
"a  c #6A6056",
"s  c #6A6852",
"d  c #65635D",
"f  c #6C645D",
"g  c #6B6A5D",
"h  c #656656",
"j  c #7A6656",
"k  c #7E6956",
"l  c #74675B",
"z  c #7B695B",
"x  c #73675A",
"c  c #787359",
"v  c #67654F",
"b  c #53566A",
"n  c #585C71",
"m  c #5A6675",
"M  c #587174",
"N  c #596263",
"B  c #626262",
"V  c #6E6D65",
"C  c #676B68",
"Z  c #706E63",
"A  c #796D60",
"S  c #65746A",
"D  c #757362",
"F  c #7E7B63",
"G  c #74726A",
"H  c #7B7A6E",
"J  c #787666",
"K  c #656776",
"L  c #777776",
"P  c #657D7C",
"I  c #8A7126",
"U  c #8F772E",
"Y  c #866D34",
"T  c #8B7536",
"R  c #91762B",
"E  c #8C764C",
"W  c #826C57",
"Q  c #896E56",
"!  c #826C5A",
"~  c #896F59",
"^  c #8B7354",
"/  c #8B7059",
"(  c #827B58",
")  c #927D5A",
"_  c #907B57",
"`  c #997E42",
"'  c #817E64",
"]  c #867162",
"[  c #927F77",
"{  c #6F8978",
"}  c #698376",
"|  c #9E842E",
" . c #9F8530",
".. c #94833E",
"X. c #A1862F",
"o. c #A68B32",
"O. c #A98E34",
"+. c #A08530",
"@. c #AD953B",
"#. c #AF983E",
"$. c #AA9137",
"%. c #B1983C",
"&. c #968D4B",
"*. c #9F934E",
"=. c #8B8246",
"-. c #A48C48",
";. c #AA8655",
":. c #A49B55",
">. c #A79E59",
",. c #B29948",
"<. c #B5A246",
"1. c #B9A74C",
"2. c #BAA94C",
"3. c #BEAF53",
"4. c #BFB155",
"5. c #8A8666",
"6. c #89856C",
"7. c #8E8A6C",
"8. c #868367",
"9. c #928E6E",
"0. c #8C8970",
"q. c #89897C",
"w. c #948F70",
"e. c #969171",
"r. c #9A9576",
"t. c #96917A",
"y. c #9B9679",
"u. c #9E997C",
"i. c #A58664",
"p. c #A19C7D",
"a. c #B59A75",
"s. c #BDA172",
"d. c #C2B356",
"f. c #C6BA5C",
"g. c #C3B75B",
"h. c #C4A773",
"j. c #757683",
"k. c #807A81",
"l. c #758D8A",
"z. c #789796",
"x. c #799897",
"c. c #7B84B6",
"v. c #858585",
"b. c #8D8985",
"n. c #988681",
"m. c #9F8B81",
"M. c #978581",
"N. c #9D9A83",
"B. c #9B9680",
"V. c #919192",
"C. c #8F8F90",
"Z. c #A19C86",
"A. c #A7A284",
"S. c #A9A386",
"D. c #ABA689",
"F. c #AFA88B",
"G. c #B1AB8E",
"H. c #ADA994",
"J. c #B4AE91",
"K. c #AFB29E",
"L. c #B7B193",
"P. c #BAB396",
"I. c #BCB699",
"U. c #BEB89B",
"Y. c #888AA4",
"T. c #A39FB8",
"R. c #AFB5A1",
"E. c #C9AB89",
"W. c #C2BB9E",
"Q. c #D2B387",
"!. c #C5BEA1",
"~. c #C7C0A3",
"^. c #CAC3A6",
"/. c #CCC5A8",
"(. c #8893D7",
"). c #949EDB",
"_. c #A8ACD8",
"`. c #B2B1D7",
"'. c #B9B6D7",
"]. c #B5B4DA",
"[. c #9CA6E7",
"{. c #B2B7E5",
"}. c #A5B4FF",
"|. c #B3BAEF",
" X c #C5BFD7",
".X c #BAC2FD",
"XX c #CBC3D7",
"oX c #C6C0D7",
"OX c #C4CBFF",
"+X c #C9CFFF",
"@X c #DDDEFF",
"#X c #D3D7FF",
"$X c #E2E2FF",
/* pixels */
"                                                                                                                                ",
"                                                                                                                                ",
"                                                                                                                                ",
"                                                                                                                                ",
"                                                    = X . . . . . . . . . . . X                                                 ",
"                                                    - - - - ; > ; ; ; ; - - - -                                                 ",
"                                            * * . - ; > > > 0 0 8 w 9 9 > > > , - . . X                                         ",
"                                            - - - ; > 8 8 8 q B d B B t w 8 8 < ; - - -                                         ",
"                                        X - > > > < 9 t q t t t t B t t t q t 0 < > > , X *                                     ",
"                                        - ; > 3 8 9 t B f l f f f f f l l B t t w 8 8 > ; -                                     ",
"                                    . - ; > 3 < q q t f z ! Q ~ ! ! ! ! ! z f t t w 8 > > > - .                                 ",
"                                    . - > < 8 w t t f l ! ~ / / ~ ~ ~ ~ / ! l f t t 9 8 < > - X                                 ",
"                                    - - > 8 9 t t f z ! / / / / / / / / / ~ ! z y B r q 8 > - .                                 ",
"                                    . - ; 8 t t f l ! ] / / / / / / / ~ ~ / / ~ A f t t 8 > X .                                 ",
"                                    . * ; 8 q f ! ~ ~ ~ / / / / / ~ ~ ~ / ~ / / ! l f b < > X .                                 ",
"                                    b n n K B r ! / Q ~ Q Q / Q ~ ~ ~ Q ~ Q Q Q Q W y B K n n b                                 ",
"                        . * X . . b j.(.(.c.j.t Q ^ / / Q Q ^ ^ / / / ^ Q / Q / Q W a K c.(.(.j.b . . . * *                     ",
"                        - - - X . n (.}.}.[.Y.k.k.k.[ m.m.m.m.m.m.k.a.m.m.m.[ k.t.b.k.Y.[.}.}.(.n X X - - -                     ",
"                    * - ; > > > ; m (.}..X|.{._.`.`.`. X X X X X XXX XXX X X X`.`.`._.{.}..X}.(.m ; ; > > > X *                 ",
"                    - , 3 8 8 8 3 K c.)._.{..XOXOXOXOX#X$X$X$X$X$X$X$X$X$X$X#X+XOXOX+X.X{._.[.Y.K 3 8 8 8 < , -                 ",
"                X - , < 9 t t t t B K j.j.Y.|.+XOX+X#X$X$X$X$X$X$X$X$X$X$X$X$X@XOXOXOX{.Y.j.j.K B q q t q q < > - *             ",
"                X - , < 9 t t t f B l r r L T.'.]. X X XXXXXXXXXXXXXXXXX X X X X'.].].T.L r y l f f f a t 9 < , - .             ",
"                    - , < w q V ! ! ! W W ] [ n.k.m.m.t.m.m.m.m.k.a.m.m.t.m.m.m.n.n.k.[ ] k W ! W z f b w < , -                 ",
"                    . - , > 8 r y W k z ! ! ! W Q Q Q Q Q Q Q Q / Q Q / Q Q Q Q Q Q Q / ! ! k W W l r 8 > , - X                 ",
"                        X - - > 9 r 9 r f f f l W Q Q Q Q Q Q ~ / / Q Q ~ Q Q Q Q W l f f f t 9 r 4 ; - - -                     ",
"                        o o O O > > > > 8 8 9 q y j j k j k k j W Q j j j W j j j y r 8 9 8 > > , > O O o o                     ",
"                        @ # Y & 1 * * * - - - ; ; < 4 9 4 9 9 9 4 4 4 9 4 4 9 4 < ; - - , - * - * 1 & U # @                     ",
"                        # U -.-.u + 1 1 2 2 e e e e v s s s s s y y j s s s s a e 2 e 2 2 2 1 + O u -.-.Y #                     ",
"                        & E s.h.-.T U ..*.:.>.:.:.:.>.>.>.>.>.>.>.>.>.>.>.>.>.>.:.:.:.:.:.-...T T *.h.a.E &                     ",
"                        i ) E.Q.,.+.O.%.d.d.f.d.d.d.g.f.f.f.f.f.f.f.f.f.f.f.f.f.d.d.f.f.d.d.%.O.| ,.Q.E._ i                     ",
"                        i ) E.E.` I X.%.@.<.d.d.<.<.d.f.f.f.f.f.f.f.f.f.f.f.f.d.<.<.d.d.<.@.%.X.I ` E.E.) i                     ",
"                        u _ a.a.E # R R o.@.1.1.@.@.3.g.d.d.g.g.g.f.f.g.3.d.g.d.#.@.2.2.@.o.U U $ T a.a._ u                     ",
"                            _ ^ W % Y R  .$.#.@.$.,.4.4.<.<.4.4.f.f.g.d.<.<.d.3.#.$.@.#.$. .I Y # Y Q ^                         ",
"                            & i & & Y R U | |  . .@.2.1.@.@.2.3.3.d.3.1.@.@.1.1.#.o.| | X.U T T W & i i                         ",
"                                u Q i.;.U I $ I  .@.@.@.$.$.@.,.@.#.#.#.$.$.@.@.$. .I $ I T ;.;.E p                             ",
"                                & E i.) & @ @ % U | o.o.| | o.$.O.O.O.X. . .o.o. .U % @ @ & ) i.^ i                             ",
"                                    A l v 5 5 e % I | | I I  .o.O.O.O.| I I  . .I $ e 5 5 v l A                                 ",
"                                    w t d d B v & & T ..& & =.&.&.&.&.=.& & E T & & v d B d q w                                 ",
"                                . > 8 d D ' F ( ( c s h S } { { { { { { } S h s c ( c F F D d 8 ; .                             ",
"                                7 6 w f ' 7.e.e.w.6.H } l.z.z.z.z.z.z.z.z.l.} H 0.e.r.w.7.' f w 6 7                             ",
"                            X 7 M M N d F e.p.S.S.S.H.H.R.R.K.R.K.K.R.R.K.K.L.H.S.S.S.Z.e.{ v N M M 7 X                         ",
"                            = 7 M P S g c 6.u.F.F.L.W.~.^./././.^./././.^.^.~.W.L.F.D.u.6.c s V l.} 6 =                         ",
"                            - , w C J c g D 6.u.S.L.L.I.!./.^.^.^./.^.^./.~.I.L.L.D.y.6.Z g c 6.B.q.0 X                         ",
"                            - ; 8 C 8.6.D Z c 7.p.S.F.J.U.!.!.W.W.!.W.W.W.U.J.F.S.p.w.c g Z 6.u.D.t.0 *                         ",
"                            = ; 8 V y.p.8.F 5.5.7.r.S.J.J.J.L.L.L.L.P.L.L.L.G.S.r.7.5.8.c 7.u.F.G.t.w .                         ",
"                            X , 8 G N.D.y.9.9.9.r.u.F.L.P.J.J.G.G.G.G.G.L.L.L.G.p.e.e.9.e.r.S.J.P.N.g >                         ",
"                            X , 8 G N.G.D.A.A.D.J.I.W.!.!.U.J.F.G.G.G.G.U.W.W.W.I.J.D.S.A.S.F.L.W.G.6.c                         ",
"                            - ; 4 C t.D.G.J.G.L.W.!.~.^.^.!.I.J.L.L.G.I.W././.^.~.W.J.G.J.G.J.L.!.I.p.9.                        ",
"                                0 C 8.r.D.G.G.J.L.I.!.^.^.^.!.!.U.!.!.!.^.^.~.!.I.J.J.G.J.G.G.P.W.W.G.A.                        ",
"                                q d F 9.p.S.A.S.F.J.U.!.~.^.^.^.^.^.^.^.^.~.^.!.J.G.F.G.F.G.F.L.!.~.I.G.                        ",
"                                w g F 7.9.9.9.r.S.G.L.P.!.^.^.^.^.^.^.^.^.~.^.!.L.J.J.G.G.G.G.L.!.^.~.H.H w                     ",
"                                q d F 5.5.5.9.r.S.J.L.P.!.^.^.~.!.!.!.^.^.^.^.!.J.F.S.S.F.G.G.L.W.^.^.J.H d                     ",
"                                q g F 5.5.9.p.S.F.L.U.!.^.^.^.!.I.I.!.^.~.^.^.!.L.S.y.y.S.G.G.L.W./.^.L.0.F                     ",
"                                w d F 5.5.9.S.G.G.L.!.^.^.^.^.W.J.L.!.^.^.^.^.!.I.S.9.9.S.G.G.L.!.^.^.I.p.7.                    ",
"                                q g F 5.5.9.S.G.G.L.!.^.^.^.^.W.L.L.U.^.^.^.^.^.!.J.w.9.S.G.G.L.!.^.^.W.G.t.G w                 ",
"                                w d F 5.5.e.S.G.G.L.U.!.!.!.^.!.L.J.U.!.~.~.^.^./.I.u.e.p.S.G.L.U.~.^.~.I.B.Z w                 ",
"                                q g F 5.5.9.S.G.G.G.L.L.J.W.!.!.L.J.J.I.!.^.^.^./.W.G.p.w.y.S.J.J.W.!.!.W.N.Z w                 ",
"                                w f J 8.5.9.S.F.D.A.A.p.A.D.L.P.J.H.G.J.W.!.^.^./.!.P.S.9.9.p.S.A.D.H.F.N.q.Z w                 ",
"                                    d g F e.S.F.y.w.9.9.9.w.r.p.D.J.J.J.J.U.~././.!.P.S.9.6.9.w.w.0.H Z Z Z                     ",
"                                    w d c 6.u.N.7.8.[ 0.7.6.' 6.u.A.B.B.B.N.D.H.H.D.Z.t.' ' F F ' c d q w w                     ",
"                                        d D 6.7.' L b.b.C.q.L G 6.6.H Z V V G H J G G Z g d d d d d                             ",
"                                        w d c F L v.C.V.V.v.G C ' ' d w w q w w q w w w w q q q q q                             ",
"                                            0 C L C.C.C.V.v.L C                                                                 ",
"                                            > q v.V.V.V.V.v.G C                                                                 "
};
