/* XPM */
static char *rsz_1wall11674633562[] = {
/* columns rows colors chars-per-pixel */
"64 64 108 2 ",
"   c None",
".  c #21B75F",
"X  c #3CA76E",
"o  c #33AE6A",
"O  c #25B662",
"+  c #29B565",
"@  c #25B863",
"#  c #29BB67",
"$  c #2EB569",
"%  c #2BBE69",
"&  c #33B16B",
"*  c #38B36F",
"=  c #3EB374",
"-  c #3DBB76",
";  c #4E9A77",
":  c #54937A",
">  c #45A073",
",  c #45AF79",
"<  c #49AA7A",
"1  c #52A17D",
"2  c #41B577",
"3  c #42B378",
"4  c #49B27C",
"5  c #26C367",
"6  c #2AC46B",
"7  c #27CD6C",
"8  c #29CC6D",
"9  c #27D46F",
"0  c #29D06F",
"q  c #2ECC71",
"w  c #36C274",
"e  c #33CA74",
"r  c #38C977",
"t  c #3AC979",
"y  c #2DD172",
"u  c #26DA70",
"i  c #2CD974",
"p  c #30D475",
"a  c #30D877",
"s  c #32D978",
"d  c #5F8D80",
"f  c #5C9681",
"g  c #5A9B81",
"h  c #6B8486",
"j  c #658D84",
"k  c #688985",
"l  c #6E8588",
"z  c #6F898B",
"x  c #708189",
"c  c #718B8D",
"v  c #738E90",
"b  c #779193",
"n  c #799496",
"m  c #7B9698",
"M  c #7E9A9C",
"N  c #54AE84",
"B  c #59B187",
"V  c #58B488",
"C  c #6BAB94",
"Z  c #74AC9A",
"A  c #68B192",
"S  c #65BA94",
"D  c #75B49D",
"F  c #70BF9E",
"G  c #7CB2A2",
"H  c #7BBDA5",
"J  c #3ED681",
"K  c #4BC685",
"L  c #4ACD86",
"P  c #4FC588",
"I  c #50C086",
"U  c #58C48E",
"Y  c #43D684",
"T  c #49D589",
"R  c #55D291",
"E  c #60C594",
"W  c #6EC09D",
"Q  c #7CCEAD",
"!  c #809C9E",
"~  c #829FA1",
"^  c #85A5A6",
"/  c #88A4A6",
"(  c #82ADA5",
")  c #87A6A8",
"_  c #89A6A9",
"`  c #8EACAD",
"'  c #90ADAF",
"]  c #92AEB1",
"[  c #98ADB5",
"{  c #94B2B4",
"}  c #91BAB4",
"|  c #97B6B8",
" . c #9AB7BA",
".. c #97B8BA",
"X. c #9AB9BB",
"o. c #A0B7BF",
"O. c #A0B8BF",
"+. c #82CFB1",
"@. c #89CCB6",
"#. c #9EBEC0",
"$. c #A3BFC4",
"%. c #A2C3C5",
"&. c #A1CAC6",
"*. c #A5C6C8",
"=. c #A7C9CB",
"-. c #A9CACD",
";. c #AEC7D0",
":. c #AFC9D1",
/* pixels */
"                                                                                                                                ",
"                                                                                                                                ",
"                                                                                                                                ",
"                                                                                                                                ",
"                                                                                                                                ",
"                                                                                                                                ",
"                                                                                                                                ",
"                                                                                                                                ",
"                                                                                                                                ",
"                                          l h h                                                                                 ",
"                                      l h h h h h z                                                                             ",
"                                  l h h z ~ ` M h h l l                                                                         ",
"                              l h h h ! { X.X.X.{ M z h h k                                                                     ",
"                          l h h l M { X.X.X.X.X.X.X.{ M z h l l                                                                 ",
"                        h h h m { X.X.X.X.X.X.X.X.X.X.X.{ ! z h h h                                                             ",
"                    h h h n { X.X.X.X.X.X.X.X.X.X.X.X.X.X.X.{ ~ z h h l                                                         ",
"                h l h f ` X.X.X.X. .X.X.X.X.X.X.X.X.X.X.X...X.X.{ ^ l h h h                                                     ",
"            h l x f = 7 E #. . .X.X.X.X.X.X.X.X.X.X.X.X.X.X. .X.X.X.{ ^ z h h h h h l h h h h x h h l                           ",
"          h l f 3 q 8 q 8 H X. . .X.X.X.X.X.X.X.X.X.X.X.X.X.X.X.X.X.X.X.{ ^ b n b b n n M M ! ! M b h h                         ",
"          h l 2 9 q q q q r } X...X.X.X.X.X.X.X.X.X.X.X.X.X.X.X.X.X.X.X.X.X.X.X.X.X.X.X.X.X.@.X.X.' c h l                       ",
"            l k w q q q q 7 P X.X.X.X.X.X.X.X.X.X.X.X.X.X.X.X.X.X.X.X.X. .X.{ X.X.X. ...X.X.X. .` ' _ l l                       ",
"            h l g q q q q q e }  .X.X.X.X.X.X.X.X.X.X.X.X.X.X.X.X.X.X.X.X.X.X.X.X. . .X...X. .` ' ` ] ~ h l                     ",
"              h l < q q e 7 I X.X.X.X.X.X.X.X.X.X.X.X.X.X.X.#.#.X.|  .X.X.X.X.X.X.X.X...X.X.' ' ' ' ` ' n h h                   ",
"                h h - q q 7 F $.....X.X.X.X.X. .X.X...X.O.%.=.=.-.%.X.X. .X.X.X.X.X.X.X.X.] ' ' ` ' ' ' ` c h h                 ",
"                h l j e q 8 H X.X.X.X.X.X.X.X.X...X.O.&.=.=.=.=.=.=.=.%.X.X.| X.X.X...X.{ ' ' ' ` ` ] ` ] / h h                 ",
"                  k l 1 q 7 K X.X.....X.X.X.X. .X.%.=.=.=.=.=.=.=.=.-.=.=.%.#.X.X.O.#.X.` ' ' ' ] ] ` ` ` ] ! h l               ",
"                    h x 3 y 7 W O...X...X.X.X.X.#.=.=.=.=.=.=.=.=.-.*.=.=.=.=.=.=.=.=.*.] ' ' ` ` ] ` ] ` ` ] b h h             ",
"                      h k w 8 r } X.X...X...X.X.X.%.=.=.=.=.-.=.=.=.=.=.=.=.=.=.=.=.=.=.%.' ` ' ` ` ] ` ] ` ] _ z h h           ",
"                      h l f q 7 U O...X.X.X.X...X.X.=.=.=.=.=.=.=.=.-.=.=.=.=.=.*.-.=.=.;.@.` ` ] ' ' ' ` ' ` ] ^ h h           ",
"                        h x < 8 6 H o.X.X.X.X.X.X.X.X.=.=.=.=.=.-.=.=.=.=.-.=.=.=.=.=.;.-.=. .` ` ' ' ' ' ' ' ' _ z h           ",
"                        h l > @ . A [ ' ' ' ] ] ] { { X.=.=.=.=.=.=.=.=.=.=.=.=.=.=.&.+.*.;.%.` ] ' ' ' ' ' ' ' / l h           ",
"                        h h o @ $ ( ' ' ' ' ' ' ' ' ' ..-.=.=.=.=.=.=.-.=.=.=.=.&.;.Q u T @.%.] ` ' ' ' ' ' ` ' ^ h l           ",
"                        x : $ . 2 ' ' ' ' ' ' ' ' ' ' $.=.=.=.=.-.=.=.=.=.=.=.=.=.*.Y a i i L D ' ' ' ' ' ' ` ] ~ h l           ",
"                        x ; + . B ' ` ' ' ' ' ' ' ' ' %.=.-.=.=.=.=.-.=.=.-.-.&.;.Q i s s s 9 r ` ' ` ' ' ' ` { M h l           ",
"                      l x X @ + Z ' ' ' ' ' ' ' ' _ o.;.=.=.=.=.=.=.=.=.=.=.=.=.-.T i s a s q q G ] ' ' ' ` ` ] b h             ",
"                      l k & . $ ` ' _ ' ' ' ' ' ' ' @.-.=.=.-.=.=.-.=.=.=.=.=.:.Q i s a a a e 7 S ] ` ' ] ` ` ] b h             ",
"                      l : . @ 4 ' ' ' ' ' ' ' ' ' ' { %.=.=.=.=.&.=.-.-.=.&.=.=.T i s a s s q 7 V ] ` ' ' ` ' ` c h             ",
"                    h l : B D ` ' ' ` ' ' ' ' ' ' ' ' ' | %.=.=.*.=.=.-.@.Y Y J a s a s a % + % r ` ' ' ' ` ` ` c h             ",
"                    l h / [ ' ' ` ' ' ' ' ' ' ' ' ' ' ' ` ' X.*.-.-.-.&.Y i i i a a s q # + + + 5 G ] ' ' ' ' ` l h             ",
"                    h c ' ' ' ` ' ' ' ' ' ' ' ' ' ' ' ' ] ' _ ` { ..%.R i s s s a s q + + @ + O 3 ) ` ' ' ` ' _ l h             ",
"                    h n ' ` ' ' ' ' ' ' ' ' ' ' ' ' ' ' ` ' ' ) ^ ^ ) 4 5 e y a p 6 + + @ + O * ^ ) ) ) ` ] ` ^ h h             ",
"                  l h ! { ' ' ' ' ' ' ' ' ' ' ' ' ' ' ' ' ' ) ^ ^ ^ ) ^ & O + % # + + + + + $ Z ) ) ) ^ ) _ ] ~ h l             ",
"                    l l M ) { ' ' ` ' ' ' ' ' ' ' ' ' ` ' ) _ ) ) ) ^ _ C + + + + + + + + + C _ ) ) ) ) ) ^ ` M h h             ",
"                    h h h l M _ ] ' ' ` ' ' ' ' ' ' ` ` ) _ ) ) ) ) ) ) _ N . O + O O + O N _ ^ ^ ) ) ^ ) ) ^ z h               ",
"                        l l h c ! ' ' ' ' ` ` ` ] ` ' ` ^ ) ) ) ) ) ) ) ) ^ = @ $ $ o + < ) ) ^ ) ) ^ ) ) m h h k               ",
"                            x l : l ! ' ] ' ` ` ` ' ` ) ^ ) ) ) ) ) ^ ) ^ ^ ^ ^ G ^ G ^ ) ) ^ ) ) ^ ) ^ c h h                   ",
"                                x x x l ! ' ] ] ` ` ) ^ ) ) ) ) ) ) ) ^ ) ) ) ) ~ _ / _ ) ^ ) ) ) ) ! z h l                     ",
"                                    x x : c ~ ` { ) ) ) ^ ^ ^ ^ ) ) ) ) ) ) ^ ) _ _ ^ ) ) ) ^ ) ) m h h l                       ",
"                                        l h h c M ! ^ ) ) ) ) ) ^ ) ) ) ) ) ) ) ) ) ) ) ^ ) ^ ^ v h l                           ",
"                                            l h h h z b m ^ ) ) ) ) ) ) ) ^ ^ ^ ) ^ ) ) ) ) M l h k                             ",
"                                                  h h h h h z b M M ) ) ) ) ) ) ) ^ ^ ) ) n h h l                               ",
"                                                        l h h h k z z n m ^ ) ) ) ) ) ^ c h l                                   ",
"                                                                l l h h h h z n M ^ M l h h                                     ",
"                                                                        l h h h h z h h l                                       ",
"                                                                                z h h                                           ",
"                                                                                                                                ",
"                                                                                                                                ",
"                                                                                                                                ",
"                                                                                                                                ",
"                                                                                                                                ",
"                                                                                                                                ",
"                                                                                                                                ",
"                                                                                                                                ",
"                                                                                                                                "
};
